<svg xmlns="http://www.w3.org/2000/svg" xmlns:xlink="http://www.w3.org/1999/xlink" xmlns:lucid="lucid" width="3729" height="2143"><g transform="translate(283.83333333333337 361.5)" lucid:page-tab-id="0_0"><path d="M-500-500h4000v2500H-500z" fill="#fff"/><path d="M-262.33-334a6 6 0 0 1 6-6h3674a6 6 0 0 1 6 6v2088a6 6 0 0 1-6 6h-3674a6 6 0 0 1-6-6z" stroke="#232f3e" stroke-width="3" fill="#fff" fill-opacity="0"/><path d="M-262.33-340h56v56h-56v-56z" stroke="#fff" stroke-opacity="0" fill="#232f3e"/><path d="M-221.46-298.78h-25c-4.12.05-7.56-3.1-7.88-7.2v-.64c-.16-3.4 1.96-6.38 5.24-7.36v-.66c.12-4.22 2.44-7.75 6.24-9.57 4.12-1.86 8.72-.96 11.8 2.3 1.08 1.1 1.84 2.2 2.44 3.6 1.2-1 2.72-1.32 4.25-.9 2.24.8 3.68 2.74 3.76 5.1 3.67.65 6.3 3.8 6.27 7.56 0 7.07-7.04 7.73-7.13 7.76zm-26.68-13.88c-2.84.6-4.76 3.14-4.6 6.04v.53c.28 3.33 3.08 5.84 6.4 5.76h24.97c3.04-.3 5.4-2.64 5.68-5.7.3-3.43-2.23-6.5-5.67-6.78-.44-.05-.72-.44-.64-.87.06-1.83-1-3.44-2.74-4.13-1.32-.37-2.64.13-3.44 1.24-.2.25-.44.38-.76.33-.28-.05-.48-.24-.6-.5-.6-1.6-1.4-2.85-2.6-4.04-2.68-2.8-6.6-3.6-10.12-2-3.24 1.6-5.2 4.63-5.32 8.24-.04.4-.04.74 0 1.14.04.4-.2.76-.6.84z" stroke="#fff" stroke-opacity="0" fill="#fff"/><use xlink:href="#a" transform="matrix(1,0,0,1,-191.33333333333337,-320) translate(0 21.333333333333336)"/><use xlink:href="#b" transform="matrix(1,0,0,1,-191.33333333333337,-320) translate(68.00000000000001 21.333333333333336)"/><path d="M-159.33-180a6 6 0 0 1 6-6h3506a6 6 0 0 1 6 6v1813a6 6 0 0 1-6 6h-3506a6 6 0 0 1-6-6z" stroke="#248814" stroke-width="3" fill="#fff" fill-opacity="0"/><path d="M-159.33-186h56v56h-56v-56z" stroke="#fff" stroke-opacity="0" fill="#248814"/><path d="M-127.58-157.7h-1.18v-1.1c-.12-1.73-1.47-3.07-3.2-3.2-1.9-.13-3.53 1.3-3.66 3.2v1.07h-1.18c-.45 0-.8.36-.8.8v6.13c0 .44.35.8.8.8h9.23c.44 0 .8-.36.8-.8v-6.1c0-.44-.36-.8-.8-.8zm-6.4-1.06c.1-1.03 1-1.77 2-1.67.9.08 1.6.77 1.67 1.67v1.06h-3.72zm5.66 7.08H-136v-4.42h7.62z" stroke="#fff" stroke-opacity="0" fill="#fff"/><path d="M-117.06-160.25c-.1-2.45-1.6-4.48-3.88-5.3-1.58-.47-3.16-.14-4.4.9-.67-1.45-1.46-2.6-2.58-3.76-3.25-3.36-7.95-4.3-12.2-2.4-4.03 1.9-6.4 5.63-6.53 10.05v.7c-3.4.98-5.66 4.08-5.5 7.65v.63c.38 4.28 3.92 7.52 8.2 7.47h26s7.42-.63 7.42-8.1c.04-3.9-2.66-7.2-6.53-7.85zm-.96 14.38h-25.92c-3.46.06-6.3-2.52-6.58-5.96v-.52c-.17-3.05 1.9-5.7 4.9-6.3.38-.12.63-.48.6-.9-.05-.4-.05-.73 0-1.14.08-3.78 2.12-6.94 5.53-8.6 1.25-.56 2.42-.8 3.84-.84 2.62.08 4.86 1.04 6.7 2.94 1.24 1.3 2.03 2.6 2.62 4.3.04.15.12.28.25.37.38.27.88.2 1.13-.17.83-1.18 2.25-1.67 3.62-1.3 1.8.72 2.87 2.4 2.83 4.32-.1.4.2.83.62.9 3.58.36 6.2 3.55 5.83 7.12-.3 3.13-2.7 5.52-5.83 5.85z" stroke="#fff" stroke-opacity="0" fill="#fff"/><use xlink:href="#c" transform="matrix(1,0,0,1,-88.33333333333348,-166) translate(0 21.333333333333336)"/><use xlink:href="#d" transform="matrix(1,0,0,1,-88.33333333333348,-166) translate(89.7037037037037 21.333333333333336)"/><use xlink:href="#e" transform="matrix(1,0,0,1,-88.33333333333348,-166) translate(185.92592592592592 21.333333333333336)"/><use xlink:href="#f" transform="matrix(1,0,0,1,-88.33333333333348,-166) translate(0 53.333333333333336)"/><use xlink:href="#g" transform="matrix(1,0,0,1,-88.33333333333348,-166) translate(148.14814814814818 53.333333333333336)"/><use xlink:href="#h" transform="matrix(1,0,0,1,-88.33333333333348,-166) translate(162.962962962963 53.333333333333336)"/><path d="M210.67-265.5a6 6 0 0 1 6-6h1325a6 6 0 0 1 6 6v1957a6 6 0 0 1-6 6h-1325a6 6 0 0 1-6-6z" fill="#fff" fill-opacity="0"/><path d="M234.74-271.5h12.04m12.05 0h12.04m12.05 0h12.04m12.05 0h12.05m12.05 0h12.04m12.05 0h12.04m12.04 0h12.05m12.04 0h12.05m12.04 0h12.05m12.05 0h12.05m12.04 0h12.05m12.04 0h12.04m12.05 0h12.04m12.05 0h12.04m12.05 0h12.05m12.05 0h12.04m12.05 0h12.03m12.05 0h12.05m12.04 0h12.05m12.04 0h12.05m12.05 0h12.05m12.04 0h12.05m12.03 0h12.05m12.05 0h12.04m12.05 0h12.04m12.05 0h12.05m12.05 0h12.04m12.05 0h12.03m12.05 0h12.05m12.04 0h12.05m12.04 0h12.05m12.05 0h12.05m12.04 0h12.05m12.03 0h12.05m12.05 0h12.04m12.05 0h12.04m12.05 0h12.05m12.05 0h12.04m12.05 0h12.03m12.05 0h12.05m12.04 0h12.05m12.04 0h12.05m12.05 0h12.05m12.04 0h12.05m12.03 0h12.05m12.05 0h12.04m12.05 0h12.04m12.05 0h12.05m12.05 0h12.04m12.05 0h12.03m12.05 0h12.05m12.04 0h12.05m12.04 0h12.05m12.05 0h12.05m12.04 0h6.03l.93.07.92.22.87.35.8.5.7.6.62.72.5.8.35.88.22.9.07.95v5.97m0 11.93v11.93m0 11.93v11.94m0 11.93v11.93m0 11.94v11.93m0 11.93v11.94m0 11.93v11.93m0 11.94v11.93m0 11.93v11.93m0 11.93v11.93m0 11.93v11.92m0 11.94V3m0 11.92v11.94m0 11.93V50.7m0 11.94V74.6m0 11.92v11.93m0 11.94v11.92m0 11.93v11.94m0 11.92v11.93m0 11.94v11.92m0 11.93v11.93m0 11.94v11.93m0 11.93v11.93m0 11.95v11.93m0 11.93v11.95m0 11.93v11.93m0 11.95v11.93m0 11.93v11.95m0 11.93v11.93m0 11.94v11.94m0 11.93v11.94m0 11.94v11.93m0 11.94v11.93m0 11.94v11.94m0 11.93v11.93m0 11.94v11.93m0 11.93v11.94m0 11.93v11.93m0 11.94v11.93m0 11.93v11.94m0 11.93v11.93m0 11.93v11.94m0 11.93v11.93m0 11.93v11.94m0 11.93v11.93m0 11.94v11.93m0 11.93v11.94m0 11.93v11.93m0 11.94v11.93m0 11.93v11.93m0 11.93v11.93m0 11.93v11.92m0 11.94v11.93m0 11.92v11.94m0 11.93v11.92m0 11.93v11.94m0 11.92v11.93m0 11.94v11.92m0 11.93v11.94m0 11.92v11.93m0 11.93v11.94m0 11.93v11.93m0 11.94v11.93m0 11.93v11.94m0 11.93v11.93m0 11.93v11.95m0 11.93v11.93m0 11.95v11.93m0 11.93v11.94m0 11.94v11.93m0 11.94v11.94m0 11.93v11.94m0 11.93v11.94m0 11.94v11.93m0 11.94v11.94m0 11.93v11.93m0 11.94v11.93m0 11.93v11.94m0 11.93V1602m0 11.94v11.93m0 11.93v11.93m0 11.94v11.93m0 11.93v5.97l-.08.94-.23.9-.36.88-.48.8-.6.72-.73.6-.8.5-.88.37-.9.23-.95.07h-6.03m-12.04 0h-12.05m-12.04 0h-12.04m-12.04 0h-12.05m-12.04 0h-12.05m-12.05 0h-12.04m-12.06 0h-12.04m-12.05 0H1367m-12.04 0h-12.04m-12.05 0h-12.04m-12.05 0h-12.05m-12.04 0h-12.06m-12.04 0h-12.05m-12.04 0h-12.04m-12.04 0h-12.05m-12.04 0h-12.05m-12.05 0h-12.04m-12.06 0h-12.04m-12.05 0H1102m-12.04 0h-12.04m-12.05 0h-12.04m-12.05 0h-12.05m-12.04 0h-12.06m-12.04 0h-12.05m-12.04 0h-12.04m-12.04 0h-12.05m-12.04 0h-12.05m-12.04 0H885.2m-12.06 0H861.1m-12.05 0H837m-12.04 0h-12.04m-12.05 0h-12.04m-12.05 0h-12.04m-12.05 0h-12.06m-12.04 0h-12.05m-12.04 0h-12.04m-12.04 0h-12.05m-12.04 0h-12.05m-12.04 0H620.2m-12.06 0H596.1m-12.05 0H572m-12.04 0h-12.04m-12.05 0h-12.04m-12.05 0h-12.04m-12.05 0h-12.06m-12.04 0h-12.05m-12.04 0h-12.04m-12.04 0h-12.05m-12.04 0h-12.05m-12.04 0H355.2m-12.06 0H331.1m-12.05 0H307m-12.04 0h-12.04m-12.05 0h-12.04m-12.05 0h-12.04m-12.05 0h-6.03l-.94-.07-.92-.22-.86-.35-.8-.5-.72-.6-.6-.72-.5-.8-.36-.88-.22-.9-.07-.95v-5.97m0-11.93v-11.93m0-11.94v-11.93m0-11.93v-11.93m0-11.94v-11.93m0-11.93v-11.94m0-11.93v-11.93m0-11.93v-11.93m0-11.93v-11.93m0-11.93v-11.93m0-11.93v-11.92m0-11.94V1423m0-11.92v-11.94m0-11.93v-11.92m0-11.93v-11.94m0-11.92v-11.93m0-11.94v-11.92m0-11.93v-11.94m0-11.92v-11.93m0-11.93v-11.94m0-11.93v-11.93m0-11.94v-11.93m0-11.93v-11.94m0-11.93v-11.93m0-11.93v-11.95m0-11.93v-11.93m0-11.95v-11.93m0-11.93v-11.94m0-11.94v-11.93m0-11.94v-11.94m0-11.93v-11.94m0-11.93v-11.94m0-11.94v-11.93m0-11.94v-11.94m0-11.93V874.1m0-11.94v-11.93m0-11.93v-11.94m0-11.93V802.5m0-11.94v-11.93m0-11.93v-11.94m0-11.93V730.9m0-11.93v-11.94m0-11.93v-11.93m0-11.93V659.3m0-11.93v-11.93m0-11.94v-11.93m0-11.93V587.7m0-11.93v-11.93m0-11.94v-11.93m0-11.93V516.1m0-11.93v-11.93m0-11.93v-11.93m0-11.93V444.5m0-11.92v-11.94m0-11.93V396.8m0-11.93V372.9m0-11.92v-11.93m0-11.94V325.2m0-11.93V301.3m0-11.92v-11.93m0-11.94V253.6m0-11.93v-11.93m0-11.94v-11.93m0-11.93V182m0-11.95v-11.93m0-11.93v-11.95m0-11.93V110.4m0-11.95V86.52m0-11.93V62.65m0-11.94V38.8m0-11.94V14.92m0-11.93V-8.95m0-11.94V-32.8m0-11.94v-11.93m0-11.94v-11.94m0-11.93v-11.94m0-11.94v-11.93m0-11.93v-11.94m0-11.93V-176m0-11.94v-11.93m0-11.93v-11.94m0-11.93v-11.93m0-11.93v-5.97l.07-.94.22-.9.36-.88.5-.8.6-.72.72-.6.8-.5.87-.37.93-.23.94-.07h6.02" stroke="#147eba" stroke-width="3" fill="none"/><use xlink:href="#i" transform="matrix(1,0,0,1,210.66666666666652,-251.5) translate(549.9814814814814 21.333333333333336)"/><use xlink:href="#j" transform="matrix(1,0,0,1,210.66666666666652,-251.5) translate(696.9444444444443 21.333333333333336)"/><use xlink:href="#k" transform="matrix(1,0,0,1,210.66666666666652,-251.5) translate(767.8333333333333 21.333333333333336)"/><path d="M268.5-80.5a6 6 0 0 1 6-6h1220a6 6 0 0 1 6 6v436a6 6 0 0 1-6 6h-1220a6 6 0 0 1-6-6z" fill="#248814" fill-opacity=".13"/><path d="M268.5-86.5h56v56h-56v-56z" stroke="#fff" stroke-opacity="0" fill="#248814"/><path d="M311.88-64.32c-.15-.17-.34-.25-.56-.25h-5.15v-5.58c-.03-2.54-.97-4.7-2.84-6.4-1.9-1.84-4.15-2.75-6.77-2.75-2.65 0-4.9.83-6.8 2.62-1.9 1.7-2.87 3.87-2.9 6.4v5.67l-5.15-.02c-.24 0-.43.1-.58.25-.16.17-.22.34-.22.6v25.28c0 .43.34.8.8.8h29.6c.46 0 .8-.37.8-.8v-25.28c0-.2-.06-.38-.22-.54zm-23.46-5.9c.03-2.13.8-3.88 2.37-5.3 1.6-1.5 3.52-2.2 5.73-2.2 2.22 0 4.12.75 5.7 2.25 1.54 1.4 2.32 3.2 2.32 5.32v5.58H288.4zm22.1 30.94h-28.03v-23.7h28z" stroke="#fff" stroke-opacity="0" fill="#fff"/><path d="M295.7-49.2v6.25h1.6v-6.23c2.13-.4 3.62-2.2 3.63-4.35 0-2.43-1.97-4.4-4.4-4.43-2.2-.03-4.06 1.5-4.44 3.68-.42 2.4 1.2 4.68 3.6 5.1zm.82-7.15c.78 0 1.44.27 2 .83.54.55.82 1.2.8 2 .03 1.54-1.2 2.8-2.74 2.8h-.06c-1.56.13-2.92-1.04-3.04-2.6-.12-1.56 1.05-2.93 2.6-3.03.16-.02.3-.02.44 0z" stroke="#fff" stroke-opacity="0" fill="#fff"/><use xlink:href="#l" transform="matrix(1,0,0,1,339.5000000000002,-66.49999999999989) translate(0 21.333333333333336)"/><use xlink:href="#m" transform="matrix(1,0,0,1,339.5000000000002,-66.49999999999989) translate(87.25925925925925 21.333333333333336)"/><use xlink:href="#n" transform="matrix(1,0,0,1,339.5000000000002,-66.49999999999989) translate(184.74074074074073 21.333333333333336)"/><use xlink:href="#o" transform="matrix(1,0,0,1,339.5000000000002,-66.49999999999989) translate(0 53.333333333333336)"/><use xlink:href="#g" transform="matrix(1,0,0,1,339.5000000000002,-66.49999999999989) translate(148.14814814814818 53.333333333333336)"/><use xlink:href="#p" transform="matrix(1,0,0,1,339.5000000000002,-66.49999999999989) translate(162.962962962963 53.333333333333336)"/><path d="M268.5 435.5a6 6 0 0 1 6-6h1220a6 6 0 0 1 6 6v1144a6 6 0 0 1-6 6h-1220a6 6 0 0 1-6-6z" fill="#147eba" fill-opacity=".13"/><path d="M268.5 429.5h56v56h-56v-56z" stroke="#fff" stroke-opacity="0" fill="#147eba"/><path d="M311.88 451.68c-.15-.17-.34-.25-.56-.25h-5.15v-5.58c-.03-2.54-.97-4.7-2.84-6.4-1.9-1.83-4.15-2.75-6.77-2.75-2.65 0-4.9.83-6.8 2.62-1.9 1.7-2.87 3.87-2.9 6.4v5.66h-5.15c-.24 0-.43.1-.58.25-.16.17-.22.34-.22.6v25.28c0 .43.34.8.8.8h29.6c.46 0 .8-.37.8-.8v-25.28c0-.2-.06-.38-.22-.54zm-23.46-5.9c.03-2.13.8-3.88 2.37-5.3 1.6-1.5 3.52-2.2 5.73-2.2 2.22 0 4.12.75 5.7 2.25 1.54 1.4 2.32 3.2 2.32 5.32v5.58H288.4zm22.1 30.94h-28.03v-23.7h28z" stroke="#fff" stroke-opacity="0" fill="#fff"/><path d="M295.7 466.8v6.25h1.6v-6.23c2.13-.4 3.62-2.2 3.63-4.35 0-2.43-1.97-4.4-4.4-4.43-2.2-.03-4.06 1.5-4.44 3.68-.42 2.4 1.2 4.68 3.6 5.1zm.82-7.15c.78 0 1.44.27 2 .83.54.55.82 1.2.8 2 .03 1.54-1.2 2.8-2.74 2.8h-.06c-1.56.13-2.92-1.04-3.04-2.6-.12-1.56 1.05-2.93 2.6-3.03.16-.02.3-.02.44 0z" stroke="#fff" stroke-opacity="0" fill="#fff"/><use xlink:href="#q" transform="matrix(1,0,0,1,339.5000000000002,449.5000000000001) translate(0 21.333333333333336)"/><use xlink:href="#m" transform="matrix(1,0,0,1,339.5000000000002,449.5000000000001) translate(96.22222222222221 21.333333333333336)"/><use xlink:href="#n" transform="matrix(1,0,0,1,339.5000000000002,449.5000000000001) translate(193.7037037037037 21.333333333333336)"/><use xlink:href="#r" transform="matrix(1,0,0,1,339.5000000000002,449.5000000000001) translate(0 53.333333333333336)"/><use xlink:href="#g" transform="matrix(1,0,0,1,339.5000000000002,449.5000000000001) translate(148.14814814814818 53.333333333333336)"/><use xlink:href="#p" transform="matrix(1,0,0,1,339.5000000000002,449.5000000000001) translate(162.962962962963 53.333333333333336)"/><path d="M1962.67-267a6 6 0 0 1 6-6h1310a6 6 0 0 1 6 6v1958.5a6 6 0 0 1-6 6h-1310a6 6 0 0 1-6-6z" fill="#fff" fill-opacity="0"/><path d="M1986.53-273h11.9m11.92 0h11.9m11.92 0h11.9m11.92 0h11.9m11.9 0h11.9m11.92 0h11.9m11.92 0h11.9m11.92 0h11.9m11.92 0h11.9m11.9 0h11.92m11.9 0h11.92m11.9 0h11.92m11.9 0h11.92m11.9 0h11.92m11.9 0h11.9m11.92 0h11.9m11.92 0h11.9m11.92 0h11.9m11.92 0h11.9m11.92 0h11.9m11.9 0h11.92m11.9 0h11.92m11.9 0h11.92m11.9 0h11.92m11.9 0h11.92m11.9 0h11.9m11.92 0h11.9m11.92 0h11.9m11.92 0h11.9m11.92 0h11.9m11.92 0h11.9m11.9 0h11.92m11.9 0h11.92m11.9 0h11.92m11.9 0h11.92m11.9 0h11.92m11.9 0h11.9m11.92 0h11.9m11.92 0h11.9m11.92 0h11.9m11.92 0h11.9m11.92 0h11.9m11.9 0h11.92m11.9 0h11.92m11.9 0h11.92m11.9 0h11.92m11.9 0h11.92m11.9 0h11.9m11.92 0h11.9m11.92 0h11.9m11.92 0h11.9m11.92 0h11.9m11.92 0h11.9m11.9 0h11.92m11.9 0h5.97l.93.07.92.22.87.35.8.5.7.6.62.72.5.8.35.88.22.9.07.95v5.97m0 11.94v11.95m0 11.95v11.94m0 11.94v11.94m0 11.95v11.94m0 11.95v11.94m0 11.93v11.95m0 11.94v11.94m0 11.94v11.94m0 11.95v11.93m0 11.94v11.94m0 11.96V1.7m0 11.94v11.94m0 11.94v11.95m0 11.94v11.95m0 11.94v11.93m0 11.94v11.95m0 11.94V145m0 11.94v11.95m0 11.93v11.94m0 11.94v11.95m0 11.95v11.94m0 11.94v11.94m0 11.94v11.95m0 11.95v11.94m0 11.93v11.94m0 11.95v11.94m0 11.94v11.94m0 11.95v11.93m0 11.94v11.94m0 11.95v11.94m0 11.94v11.94m0 11.94v11.94m0 11.95v11.95m0 11.94v11.93m0 11.94v11.95m0 11.94v11.94m0 11.94v11.94m0 11.95v11.94m0 11.94v11.95m0 11.94v11.94m0 11.94v11.94m0 11.94v11.95m0 11.95V766m0 11.93v11.94m0 11.95v11.94m0 11.94v11.94m0 11.94v11.95m0 11.94v11.94m0 11.95v11.94m0 11.94v11.94m0 11.94v11.94m0 11.95v11.95m0 11.94v11.93m0 11.94v11.94m0 11.96v11.94m0 11.94v11.94m0 11.94v11.95m0 11.94v11.95m0 11.94v11.94m0 11.94v11.94m0 11.94v11.94m0 11.95v11.94m0 11.93v11.94m0 11.94v11.96m0 11.94v11.94m0 11.94v11.94m0 11.95v11.94m0 11.95v11.94m0 11.94v11.94m0 11.94v11.94m0 11.94v11.94m0 11.95v11.93m0 11.94v11.94m0 11.96v11.94m0 11.94v11.94m0 11.94v11.95m0 11.94v11.95m0 11.94v11.93m0 11.95v11.94m0 11.94v11.94m0 11.94v11.95m0 11.93v5.97l-.08.94-.23.9-.36.88-.48.8-.6.72-.73.6-.8.5-.88.37-.9.23-.95.07h-5.96m-11.9 0h-11.9m-11.9 0h-11.92m-11.9 0h-11.92m-11.9 0h-11.92m-11.9 0h-11.92m-11.9 0h-11.92m-11.9 0H3106m-11.92 0h-11.9m-11.92 0h-11.9m-11.92 0h-11.9m-11.92 0h-11.9m-11.92 0h-11.9m-11.9 0h-11.92m-11.9 0h-11.92m-11.9 0h-11.92m-11.9 0h-11.92m-11.9 0h-11.92m-11.9 0H2844m-11.92 0h-11.9m-11.92 0h-11.9m-11.92 0h-11.9m-11.92 0h-11.9m-11.92 0h-11.9m-11.9 0h-11.92m-11.9 0h-11.92m-11.9 0h-11.92m-11.9 0h-11.92m-11.9 0h-11.92m-11.9 0H2582m-11.92 0h-11.9m-11.92 0h-11.9m-11.92 0h-11.9m-11.92 0h-11.9m-11.92 0h-11.9m-11.9 0h-11.92m-11.9 0h-11.92m-11.9 0h-11.92m-11.9 0h-11.92m-11.9 0h-11.92m-11.9 0H2320m-11.92 0h-11.9m-11.92 0h-11.9m-11.92 0h-11.9m-11.92 0h-11.9m-11.92 0h-11.9m-11.9 0h-11.92m-11.9 0h-11.92m-11.9 0h-11.92m-11.9 0h-11.92m-11.9 0h-11.92m-11.9 0H2058m-11.92 0h-11.9m-11.92 0h-11.9m-11.92 0h-11.9m-11.92 0h-5.95l-.94-.07-.92-.22-.86-.35-.8-.5-.72-.6-.6-.72-.5-.8-.36-.88-.22-.9-.07-.95v-5.97m0-11.94v-11.95m0-11.95v-11.94m0-11.94v-11.94m0-11.95V1590m0-11.95v-11.94m0-11.93v-11.95m0-11.94v-11.94m0-11.94v-11.94m0-11.95v-11.93m0-11.94v-11.94m0-11.96v-11.94m0-11.94v-11.94m0-11.94v-11.94m0-11.95v-11.95m0-11.94v-11.93m0-11.94v-11.95m0-11.94v-11.94m0-11.94v-11.95m0-11.93v-11.94m0-11.94v-11.95m0-11.95v-11.94m0-11.94v-11.94m0-11.94v-11.95m0-11.95v-11.94m0-11.93v-11.94m0-11.95v-11.94m0-11.94v-11.94m0-11.95v-11.93m0-11.94V992.9m0-11.95V969m0-11.94v-11.94m0-11.94v-11.94m0-11.95v-11.95m0-11.94v-11.93m0-11.94v-11.95m0-11.94V825.7m0-11.94v-11.94m0-11.95v-11.94m0-11.94v-11.95m0-11.94v-11.94m0-11.94v-11.94m0-11.94V682.4m0-11.95V658.5m0-11.93v-11.94m0-11.95v-11.94m0-11.94v-11.94m0-11.94v-11.95m0-11.94V539.1m0-11.95V515.2m0-11.94v-11.94m0-11.94v-11.94m0-11.94v-11.95m0-11.94v-11.93m0-11.94V395.8m0-11.96V371.9m0-11.94v-11.94m0-11.94v-11.95m0-11.94v-11.95m0-11.94v-11.94m0-11.94v-11.94m0-11.94V228.6m0-11.95V204.7m0-11.93v-11.94m0-11.94v-11.96m0-11.94v-11.94m0-11.94v-11.95m0-11.94V85.3m0-11.95V61.4m0-11.93V37.52m0-11.94V13.64m0-11.94v-11.94m0-11.95v-11.93m0-11.94V-58m0-11.96V-81.9m0-11.94v-11.94m0-11.94v-11.95m0-11.94v-11.95m0-11.94v-11.93m0-11.95v-11.94m0-11.94v-11.94m0-11.95v-11.94m0-11.93V-267l.07-.94.22-.9.36-.88.5-.8.6-.72.72-.6.8-.5.87-.37.93-.23.94-.07h5.95" stroke="#147eba" stroke-width="3" fill="none"/><use xlink:href="#i" transform="matrix(1,0,0,1,1962.6666666666665,-253) translate(542.4814814814814 21.333333333333336)"/><use xlink:href="#j" transform="matrix(1,0,0,1,1962.6666666666665,-253) translate(689.4444444444443 21.333333333333336)"/><use xlink:href="#s" transform="matrix(1,0,0,1,1962.6666666666665,-253) translate(760.3333333333333 21.333333333333336)"/><path d="M2011.5-82a6 6 0 0 1 6-6h1208a6 6 0 0 1 6 6v437.5a6 6 0 0 1-6 6h-1208a6 6 0 0 1-6-6z" fill="#248814" fill-opacity=".13"/><path d="M2011.5-88h56v56h-56v-56z" stroke="#fff" stroke-opacity="0" fill="#248814"/><path d="M2054.88-65.82c-.15-.17-.34-.25-.56-.25h-5.15v-5.58c-.03-2.54-.97-4.7-2.84-6.4-1.9-1.84-4.15-2.75-6.77-2.75-2.65 0-4.9.83-6.8 2.62-1.9 1.7-2.87 3.87-2.9 6.4v5.67l-5.15-.02c-.24 0-.43.1-.58.25-.16.17-.22.34-.22.6V-40c0 .43.34.8.8.8h29.6c.46 0 .8-.37.8-.8v-25.28c0-.2-.06-.38-.22-.54zm-23.46-5.9c.03-2.13.8-3.88 2.37-5.3 1.6-1.5 3.52-2.2 5.73-2.2 2.22 0 4.12.75 5.7 2.25 1.54 1.4 2.32 3.2 2.32 5.32v5.58h-16.16zm22.1 30.94h-28.03v-23.7h28z" stroke="#fff" stroke-opacity="0" fill="#fff"/><path d="M2038.7-50.7v6.25h1.6v-6.23c2.13-.4 3.62-2.2 3.63-4.35 0-2.43-1.97-4.4-4.4-4.43-2.2-.03-4.07 1.5-4.44 3.68-.42 2.4 1.2 4.68 3.6 5.1zm.82-7.15c.78 0 1.44.27 2 .83.54.55.82 1.2.8 2 .03 1.54-1.2 2.8-2.74 2.8h-.06c-1.56.13-2.92-1.04-3.04-2.6-.12-1.56 1.05-2.93 2.6-3.03.16-.02.3-.02.44 0z" stroke="#fff" stroke-opacity="0" fill="#fff"/><use xlink:href="#l" transform="matrix(1,0,0,1,2082.5000000000005,-67.99999999999989) translate(0 21.333333333333336)"/><use xlink:href="#m" transform="matrix(1,0,0,1,2082.5000000000005,-67.99999999999989) translate(87.25925925925925 21.333333333333336)"/><use xlink:href="#t" transform="matrix(1,0,0,1,2082.5000000000005,-67.99999999999989) translate(184.74074074074073 21.333333333333336)"/><use xlink:href="#u" transform="matrix(1,0,0,1,2082.5000000000005,-67.99999999999989) translate(0 53.333333333333336)"/><use xlink:href="#g" transform="matrix(1,0,0,1,2082.5000000000005,-67.99999999999989) translate(148.14814814814818 53.333333333333336)"/><use xlink:href="#p" transform="matrix(1,0,0,1,2082.5000000000005,-67.99999999999989) translate(162.962962962963 53.333333333333336)"/><path d="M2011.5 435.5a6 6 0 0 1 6-6h1208a6 6 0 0 1 6 6v1144a6 6 0 0 1-6 6h-1208a6 6 0 0 1-6-6z" fill="#147eba" fill-opacity=".13"/><path d="M2011.5 429.5h56v56h-56v-56z" stroke="#fff" stroke-opacity="0" fill="#147eba"/><path d="M2054.88 451.68c-.15-.17-.34-.25-.56-.25h-5.15v-5.58c-.03-2.54-.97-4.7-2.84-6.4-1.9-1.83-4.15-2.75-6.77-2.75-2.65 0-4.9.83-6.8 2.62-1.9 1.7-2.87 3.87-2.9 6.4v5.66h-5.15c-.24 0-.43.1-.58.25-.16.17-.22.34-.22.6v25.28c0 .43.34.8.8.8h29.6c.46 0 .8-.37.8-.8v-25.28c0-.2-.06-.38-.22-.54zm-23.46-5.9c.03-2.13.8-3.88 2.37-5.3 1.6-1.5 3.52-2.2 5.73-2.2 2.22 0 4.12.75 5.7 2.25 1.54 1.4 2.32 3.2 2.32 5.32v5.58h-16.16zm22.1 30.94h-28.03v-23.7h28z" stroke="#fff" stroke-opacity="0" fill="#fff"/><path d="M2038.7 466.8v6.25h1.6v-6.23c2.13-.4 3.62-2.2 3.63-4.35 0-2.43-1.97-4.4-4.4-4.43-2.2-.03-4.07 1.5-4.44 3.68-.42 2.4 1.2 4.68 3.6 5.1zm.82-7.15c.78 0 1.44.27 2 .83.54.55.82 1.2.8 2 .03 1.54-1.2 2.8-2.74 2.8h-.06c-1.56.13-2.92-1.04-3.04-2.6-.12-1.56 1.05-2.93 2.6-3.03.16-.02.3-.02.44 0z" stroke="#fff" stroke-opacity="0" fill="#fff"/><use xlink:href="#q" transform="matrix(1,0,0,1,2082.5000000000005,449.5000000000001) translate(0 21.333333333333336)"/><use xlink:href="#m" transform="matrix(1,0,0,1,2082.5000000000005,449.5000000000001) translate(96.22222222222221 21.333333333333336)"/><use xlink:href="#t" transform="matrix(1,0,0,1,2082.5000000000005,449.5000000000001) translate(193.7037037037037 21.333333333333336)"/><use xlink:href="#v" transform="matrix(1,0,0,1,2082.5000000000005,449.5000000000001) translate(0 53.333333333333336)"/><use xlink:href="#g" transform="matrix(1,0,0,1,2082.5000000000005,449.5000000000001) translate(148.14814814814818 53.333333333333336)"/><use xlink:href="#p" transform="matrix(1,0,0,1,2082.5000000000005,449.5000000000001) translate(162.962962962963 53.333333333333336)"/><path d="M428.5 595.5a6 6 0 0 1 6-6h948a6 6 0 0 1 6 6v738.67a6 6 0 0 1-6 6h-948a6 6 0 0 1-6-6z" fill="#fff" fill-opacity="0"/><path d="M452.27 589.5h11.86m11.85 0h11.84m11.86 0h11.84m11.86 0h11.85m11.85 0h11.84m11.86 0h11.85m11.85 0h11.85m11.84 0h11.86m11.85 0h11.85m11.85 0h11.84m11.86 0h11.85m11.85 0h11.85m11.84 0h11.86m11.85 0h11.85m11.85 0h11.84m11.86 0h11.85m11.85 0h11.85m11.84 0h11.86m11.85 0h11.85m11.85 0h11.84m11.86 0h11.85m11.85 0h11.85m11.84 0h11.86m11.85 0h11.85m11.85 0h11.84m11.86 0h11.85m11.84 0h11.86m11.85 0h11.85m11.85 0h11.84m11.86 0h11.85m11.85 0h11.85m11.84 0h11.86m11.85 0h11.85m11.85 0h11.84m11.86 0h11.85m11.85 0h11.85m11.84 0h11.86m11.85 0h11.85m11.85 0h11.84m11.86 0h5.92l.94.07.9.22.88.35.8.5.72.6.6.72.5.8.37.88.23.9.07.95v5.96m0 11.9v11.92m0 11.92v11.9m0 11.93v11.9m0 11.93v11.9m0 11.92v11.92m0 11.9v11.92m0 11.92v11.9m0 11.93v11.9m0 11.92v11.9m0 11.92v11.92m0 11.9v11.93m0 11.9v11.92m0 11.9v11.92m0 11.9v11.93m0 11.9v11.93m0 11.9v11.92m0 11.92v11.9m0 11.93v11.9m0 11.92v11.92m0 11.9v11.92m0 11.9v11.92m0 11.92v11.9m0 11.93v11.9m0 11.9v11.93m0 11.9v11.93m0 11.9V1221m0 11.92v11.9m0 11.93v11.9m0 11.92v11.92m0 11.9v11.93m0 11.9v5.97l-.07.93-.22.92-.35.87-.5.8-.6.7-.72.62-.8.5-.88.35-.9.22-.95.07h-5.92m-11.86 0h-11.85m-11.84 0h-11.86m-11.85 0h-11.85m-11.85 0h-11.84m-11.86 0h-11.85m-11.85 0h-11.85m-11.84 0h-11.86m-11.85 0h-11.85m-11.85 0h-11.84m-11.86 0h-11.85m-11.85 0h-11.85m-11.84 0h-11.86m-11.85 0h-11.85m-11.85 0h-11.84m-11.86 0h-11.85m-11.85 0h-11.85m-11.85 0h-11.85m-11.84 0h-11.86m-11.85 0h-11.85m-11.85 0h-11.84m-11.86 0h-11.85m-11.85 0h-11.85m-11.84 0h-11.86m-11.85 0h-11.85m-11.85 0h-11.84m-11.86 0h-11.85m-11.85 0h-11.85m-11.84 0h-11.86m-11.85 0h-11.85m-11.85 0h-11.84m-11.86 0h-11.85m-11.85 0h-11.85m-11.84 0h-11.86m-11.85 0h-11.85m-11.85 0h-11.84m-11.86 0h-11.85m-11.85 0H499.7m-11.86 0H476m-11.86 0h-11.85m-11.84 0h-5.93l-.94-.08-.9-.23-.88-.36-.8-.48-.72-.6-.6-.73-.5-.8-.37-.88-.23-.9-.07-.95v-5.96m0-11.9v-11.92m0-11.9v-11.93m0-11.9v-11.92m0-11.92v-11.9m0-11.92v-11.9m0-11.92v-11.92m0-11.9v-11.93m0-11.9v-11.9m0-11.93v-11.9m0-11.93v-11.9m0-11.92v-11.92m0-11.9v-11.93m0-11.9v-11.92m0-11.92v-11.9m0-11.93v-11.9m0-11.92v-11.92m0-11.9v-11.93m0-11.9V899.3m0-11.9v-11.92m0-11.9v-11.93m0-11.9V827.8m0-11.9V804m0-11.92v-11.9m0-11.93v-11.9m0-11.93v-11.9m0-11.92v-11.92m0-11.9v-11.92m0-11.92v-11.9m0-11.93v-11.9m0-11.92v-11.9m0-11.92v-5.96l.07-.94.22-.9.35-.88.5-.8.6-.72.72-.6.8-.5.88-.37.9-.23.95-.07h5.93" stroke="#5a6c86" stroke-width="3" fill="none"/><use xlink:href="#w" transform="matrix(1,0,0,1,428.5000000000007,609.5000000000005) translate(407.9814814814815 21.333333333333332)"/><path d="M795 839.5a6 6 0 0 1 6-6h1889.17a6 6 0 0 1 6 6v437.67a6 6 0 0 1-6 6H801a6 6 0 0 1-6-6z" fill="#fff" fill-opacity="0"/><path d="M818.92 833.5h11.96m11.96 0h11.95m11.95 0h11.96m11.97 0h11.95m11.96 0h11.96m11.95 0h11.95m11.96 0h11.96m11.96 0h11.96m11.95 0h11.96m11.95 0h11.95m11.96 0h11.96m11.95 0h11.96m11.96 0h11.94m11.96 0h11.96m11.96 0h11.95m11.96 0h11.96m11.94 0h11.96m11.96 0h11.95m11.97 0h11.96m11.95 0h11.96m11.96 0h11.95m11.96 0h11.97m11.96 0h11.95m11.96 0h11.95m11.95 0h11.96m11.97 0h11.95m11.96 0h11.96m11.95 0h11.95m11.96 0h11.96m11.96 0h11.96m11.95 0h11.96m11.95 0h11.95m11.96 0h11.96m11.96 0h11.95m11.96 0h11.94m11.96 0h11.96m11.96 0h11.95m11.96 0h11.96m11.94 0h11.96m11.96 0h11.95m11.97 0h11.96m11.95 0h11.96m11.96 0h11.95m11.96 0h11.97m11.95 0h11.96m11.96 0H1907m11.95 0h11.96m11.97 0h11.95m11.96 0h11.96m11.95 0h11.95m11.96 0h11.96m11.96 0h11.96m11.95 0h11.96m11.95 0h11.95m11.96 0h11.96m11.96 0h11.95m11.96 0h11.95m11.95 0h11.96m11.96 0h11.95m11.96 0h11.96m11.94 0h11.96m11.96 0h11.95m11.97 0h11.96m11.95 0h11.96m11.96 0h11.95m11.96 0h11.97m11.95 0h11.96m11.96 0h11.95m11.95 0H2457m11.97 0h11.95m11.96 0h11.96m11.95 0h11.95m11.96 0h11.96m11.96 0h11.96m11.95 0h11.96m11.95 0h11.95m11.96 0h11.96m11.95 0h11.96m11.96 0h5.97l.93.07.92.22.87.35.8.5.7.6.62.72.5.8.35.88.22.9.07.95v6.08m0 12.16v12.15m0 12.15v12.16m0 12.17v12.15m0 12.16v12.16m0 12.15v12.15m0 12.16v12.17m0 12.15v12.16m0 12.16v12.16m0 12.16v12.15m0 12.17v12.16m0 12.15v12.16m0 12.16v12.16m0 12.15v12.17m0 12.16V1186m0 12.14v12.16m0 12.16v12.16m0 12.15v12.16m0 12.16v6.07l-.08.93-.23.92-.36.87-.48.8-.6.7-.73.62-.8.5-.88.35-.9.22-.95.07h-5.98m-11.97 0h-11.95m-11.96 0h-11.96m-11.96 0h-11.95m-11.96 0h-11.97m-11.95 0h-11.96m-11.96 0h-11.95m-11.95 0h-11.96m-11.96 0h-11.96m-11.96 0h-11.95m-11.96 0h-11.95m-11.96 0h-11.96m-11.96 0h-11.95m-11.96 0h-11.96m-11.95 0h-11.95m-11.96 0h-11.96m-11.95 0h-11.96m-11.96 0h-11.94m-11.96 0h-11.96m-11.95 0h-11.97m-11.96 0h-11.95m-11.96 0H2182m-11.95 0h-11.96m-11.97 0h-11.95m-11.96 0h-11.96m-11.96 0h-11.95m-11.96 0h-11.97m-11.95 0h-11.96m-11.96 0h-11.95m-11.95 0h-11.96m-11.96 0h-11.96m-11.96 0h-11.95m-11.96 0h-11.95m-11.96 0h-11.96m-11.96 0h-11.95m-11.96 0h-11.96m-11.95 0h-11.95m-11.96 0h-11.96m-11.95 0h-11.96m-11.96 0h-11.94m-11.96 0h-11.96m-11.95 0h-11.97m-11.96 0h-11.95m-11.96 0h-11.96m-11.96 0H1632m-11.97 0h-11.95m-11.96 0h-11.96m-11.96 0h-11.95m-11.96 0h-11.97m-11.95 0h-11.96m-11.96 0h-11.95m-11.95 0h-11.96m-11.96 0h-11.96m-11.96 0h-11.95m-11.96 0h-11.95m-11.95 0h-11.96m-11.96 0h-11.95m-11.96 0h-11.96m-11.95 0h-11.95m-11.96 0h-11.96m-11.95 0h-11.96m-11.96 0h-11.94m-11.96 0h-11.96m-11.95 0h-11.97m-11.96 0h-11.95m-11.96 0h-11.96m-11.95 0h-11.96m-11.97 0h-11.96m-11.95 0h-11.96m-11.96 0h-11.95m-11.96 0h-11.97m-11.95 0h-11.96m-11.96 0H962.4m-11.95 0H938.5m-11.96 0h-11.96m-11.96 0h-11.95m-11.96 0h-11.95m-11.96 0h-11.96m-11.96 0h-11.96m-11.95 0H801l-.95-.08-.9-.23-.88-.36-.8-.48-.72-.6-.6-.73-.5-.8-.37-.88-.22-.9-.07-.95v-6.08m0-12.17v-12.16m0-12.15v-12.16m0-12.16v-12.16m0-12.15v-12.17m0-12.16v-12.16m0-12.14v-12.16m0-12.16v-12.16m0-12.15v-12.16m0-12.16v-12.14m0-12.16v-12.16m0-12.16v-12.15m0-12.16V979.3m0-12.15V955m0-12.16v-12.16m0-12.16v-12.15m0-12.16v-12.15m0-12.16v-12.16m0-12.16v-6.08l.06-.94.22-.9.36-.88.5-.8.6-.72.72-.6.8-.5.88-.37.9-.23.95-.07h5.97" stroke="#fc9432" stroke-width="3" fill="none"/><path d="M2064.5 595.5a6 6 0 0 1 6-6h986a6 6 0 0 1 6 6v738.67a6 6 0 0 1-6 6h-986a6 6 0 0 1-6-6z" fill="#fff" fill-opacity="0"/><path d="M2088.54 589.5h12.02m12.03 0h12m12.03 0h12.03m12.02 0h12.03m12.03 0h12.03m12.02 0h12.02m12.03 0h12.02m12.03 0h12.02m12.03 0h12.02m12.03 0H2317m12.02 0h12.03m12.02 0h12.03m12.02 0h12.03m12.02 0h12.03m12.02 0h12.02m12.03 0h12.02m12.02 0h12.02m12.03 0h12.02m12 0h12.04m12.02 0h12.03m12 0h12.04m12.02 0h12.03m12 0h12.03m12.03 0h12.02m12.03 0h12.03m12.03 0h12.02m12.02 0h12.03m12.02 0h12.03m12.02 0h12.03m12.02 0h12.03m12.02 0h12.02m12.03 0h12.02m12.03 0h12.02m12.03 0h12.02m12.03 0h12.02m12.02 0h12.03m12.02 0h12.02m12.02 0h12.03m12.02 0h12m12.04 0h12.02m12.03 0h6l.94.07.9.22.88.35.8.5.72.6.6.72.5.8.37.88.23.9.07.95v5.96m0 11.9v11.92m0 11.92v11.9m0 11.93v11.9m0 11.93v11.9m0 11.92v11.92m0 11.9v11.92m0 11.92v11.9m0 11.93v11.9m0 11.92v11.9m0 11.92v11.92m0 11.9v11.93m0 11.9v11.92m0 11.9v11.92m0 11.9v11.93m0 11.9v11.93m0 11.9v11.92m0 11.92v11.9m0 11.93v11.9m0 11.92v11.92m0 11.9v11.92m0 11.9v11.92m0 11.92v11.9m0 11.93v11.9m0 11.9v11.93m0 11.9v11.93m0 11.9V1221m0 11.92v11.9m0 11.93v11.9m0 11.92v11.92m0 11.9v11.93m0 11.9v5.97l-.07.93-.22.92-.35.87-.5.8-.6.7-.72.62-.8.5-.88.35-.9.22-.95.07h-6m-12.04 0h-12.02m-12.03 0h-12m-12.03 0h-12.03m-12.02 0h-12.03m-12.03 0h-12.03m-12.02 0h-12.02m-12.03 0h-12.02m-12.03 0h-12.02m-12.03 0h-12.02m-12.03 0H2810m-12.02 0h-12.03m-12.02 0h-12.03m-12.02 0h-12.03m-12.02 0h-12.03m-12.02 0h-12.02m-12.03 0h-12.02m-12.02 0h-12.02m-12.03 0h-12.02m-12 0h-12.04m-12.02 0h-12.03m-12 0h-12.04m-12.02 0h-12.03m-12 0h-12.03m-12.03 0h-12.02m-12.03 0h-12.03m-12.03 0h-12.02m-12.02 0h-12.03m-12.02 0h-12.03m-12.02 0h-12.03m-12.02 0h-12.03m-12.02 0h-12.02m-12.03 0h-12.02m-12.03 0h-12.02m-12.03 0h-12.02m-12.03 0h-12.02m-12.02 0h-12.03m-12.02 0h-12.02m-12.02 0h-12.03m-12.02 0h-12m-12.04 0h-12.02m-12.03 0h-6l-.94-.08-.9-.23-.88-.36-.8-.48-.72-.6-.6-.73-.5-.8-.37-.88-.23-.9-.07-.95v-5.96m0-11.9v-11.92m0-11.9v-11.93m0-11.9v-11.92m0-11.92v-11.9m0-11.92v-11.9m0-11.92v-11.92m0-11.9v-11.93m0-11.9v-11.9m0-11.93v-11.9m0-11.93v-11.9m0-11.92v-11.92m0-11.9v-11.93m0-11.9v-11.92m0-11.92v-11.9m0-11.93v-11.9m0-11.92v-11.92m0-11.9v-11.93m0-11.9V899.3m0-11.9v-11.92m0-11.9v-11.93m0-11.9V827.8m0-11.9V804m0-11.92v-11.9m0-11.93v-11.9m0-11.93v-11.9m0-11.92v-11.92m0-11.9v-11.92m0-11.92v-11.9m0-11.93v-11.9m0-11.92v-11.9m0-11.92v-5.96l.07-.94.22-.9.35-.88.5-.8.6-.72.72-.6.8-.5.88-.37.9-.23.95-.07h6" stroke="#5a6c86" stroke-width="3" fill="none"/><use xlink:href="#w" transform="matrix(1,0,0,1,2064.500000000001,609.5000000000006) translate(426.9814814814815 21.333333333333332)"/><path d="M885.17 240.5c-56.86 0-103-46.14-103-103s46.14-103 103-103c56.85 0 103 46.14 103 103s-46.15 103-103 103zm0-197.14c-52.12 0-94.14 42.02-94.14 94.14s42.02 94.14 94.14 94.14 94.14-42.02 94.14-94.14-42-94.14-94.13-94.14z" stroke="#fff" stroke-opacity="0" fill="#693cc5"/><path d="M897.5 195.3h-36.13v-8.8h31.75V96.74h-31.75v-8.8h36.12c2.42 0 4.37 1.93 4.37 4.4v98.58c0 2.48-1.95 4.4-4.38 4.4z" stroke="#fff" stroke-opacity="0" fill="#693cc5"/><path d="M860.5 137.24h78.05V146H860.5v-8.76zM831.72 113.13c-.67 0-1.26-.12-1.87-.46-1.56-.7-2.5-2.2-2.5-3.9V75.88c0-1.76.94-3.2 2.5-3.96 1.55-.75 3.28-.6 4.66.5L855 88.9c1.1.86 1.68 2.03 1.68 3.4 0 1.38-.6 2.6-1.67 3.42l-20.5 16.45c-.8.67-1.72.96-2.78.96zm4.4-28.16v14.67l9.15-7.34zM831.72 162.44c-.67 0-1.26-.13-1.87-.46-1.56-.7-2.5-2.2-2.5-3.9V125.2c0-1.75.94-3.2 2.5-3.95 1.55-.75 3.28-.6 4.66.5L855 138.2c1.1.87 1.68 2.04 1.68 3.4 0 1.4-.6 2.6-1.67 3.43l-20.5 16.45c-.8.67-1.72.96-2.78.96zm4.4-28.16v14.66l9.15-7.33z" stroke="#fff" stroke-opacity="0" fill="#693cc5"/><path d="M942.66 166.5c-.6 0-1.1-.08-1.64-.28-1.7-.7-2.73-2.25-2.73-4.1v-41.08c0-2.4 1.92-4.4 4.36-4.4 1.2.02 2.26.46 3.14 1.3l20.55 20.55c1.67 1.74 1.67 4.48 0 6.18l-20.55 20.6c-.88.84-1.9 1.23-3.14 1.23zm4.4-35.04v19.95l10-9.96zM831.75 207.63c-.7 0-1.3-.13-1.9-.46-1.56-.7-2.5-2.2-2.5-3.92V170.4c0-2.47 1.94-4.43 4.37-4.43 1.05 0 1.96.34 2.78 1l20.5 16.4c1.9 1.5 2.2 4.3.68 6.18-.2.25-.4.46-.67.67l-20.5 16.45c-.82.67-1.73.96-2.75.96zm4.37-28.16v14.66l9.16-7.33z" stroke="#fff" stroke-opacity="0" fill="#693cc5"/><use xlink:href="#x" transform="matrix(1,0,0,1,752.1666666666665,249.5000000000001) translate(50.48148148148148 21.333333333333336)"/><use xlink:href="#y" transform="matrix(1,0,0,1,752.1666666666665,249.5000000000001) translate(110.48148148148148 21.333333333333336)"/><path d="M1668.8-270.5a6 6 0 0 1 6-6h157.37a6 6 0 0 1 6 6v225.83a6 6 0 0 1-6 6H1674.8a6 6 0 0 1-6-6z" stroke="#000" stroke-opacity="0" stroke-width="3" fill="#fff"/><path d="M1755.67-95.5c-48.58 0-88-39.42-88-88s39.42-88 88-88c48.57 0 88 39.42 88 88s-39.43 88-88 88zm0-168.43c-44.53 0-80.44 35.9-80.44 80.43 0 44.53 35.9 80.43 80.44 80.43 44.52 0 80.43-35.9 80.43-80.43 0-44.53-35.9-80.43-80.43-80.43z" stroke="#fff" stroke-opacity="0" fill="#693cc5"/><path d="M1797.78-130.63h-14.04c-2.1 0-3.76-1.66-3.76-3.74V-207c-7.62-3.94-14.86-5.7-23.4-5.92-9.35.2-17.15 2.3-25.4 6.76v71.8c0 2.07-1.66 3.74-3.68 3.74h-13.94c-2.1 0-3.77-1.67-3.77-3.75v-81.66c0-1.15.45-2.08 1.28-2.8 13.4-11.02 28.26-16.1 45.5-15.7 16.34-.3 30.37 4.26 43.5 13.93 1 .72 1.46 1.76 1.46 2.9v83.33c0 2.08-1.65 3.75-3.76 3.75zm-10.28-7.48h6.52v-77.72c-11.47-7.9-23.5-11.43-37.44-11.23-14.77-.4-27.52 3.74-39.26 12.68v76.26h6.42v-70.45c0-1.46.73-2.7 2.02-3.33 9.9-5.6 19.45-8.3 30.82-8.52 10.37.3 19.18 2.6 28.35 7.48h.37c1.38.63 2.2 1.87 2.2 3.43z" stroke="#fff" stroke-opacity="0" fill="#693cc5"/><use xlink:href="#z" transform="matrix(1,0,0,1,1637.6666666666665,-86.5) translate(13.037037037037038 21.333333333333336)"/><use xlink:href="#y" transform="matrix(1,0,0,1,1637.6666666666665,-86.5) translate(117.92592592592594 21.333333333333336)"/><path d="M484.4 562.44c-1.94.2-3.5.58-5.06 1.36l-67.72 33.37c-3.7 1.76-6.24 4.88-7.02 8.98l-16.78 75.12c-.78 3.52-.2 7.03 1.75 10.15.2.4.4.6.78.98l46.84 60.1c2.53 3.32 6.04 5.07 10.13 5.07h75.33c4.1 0 7.6-1.75 10.15-5.07l46.84-60.1c2.54-3.32 3.5-7.22 2.54-11.32l-16.78-74.93c-.78-4.1-3.32-7.22-7.03-8.98l-67.7-33.37c-2.16-.97-4.1-1.56-6.26-1.36z" stroke="#000" stroke-opacity="0" stroke-width="3.83" fill="#326ce5"/><path d="M484.38 557c-2.06.2-3.7.62-5.35 1.44l-71.5 35.23c-3.9 1.85-6.58 5.15-7.4 9.47l-17.72 79.3c-.8 3.72-.2 7.43 1.87 10.73.2.4.4.6.82 1.03l49.43 63.44c2.68 3.5 6.4 5.36 10.7 5.36h79.53c4.32 0 8.03-1.85 10.7-5.36l49.45-63.44c2.7-3.5 3.72-7.63 2.7-11.75l-17.73-79.3c-.82-4.33-3.5-7.63-7.4-9.48l-71.5-35.23c-2.26-1.03-4.32-1.65-6.6-1.44zm0 5.56c2.27-.2 4.12.2 6.18 1.24l67.98 33.37c3.5 1.85 5.98 4.94 7 9.06l16.7 75c.82 4.1 0 7.82-2.48 11.1L532.8 752.5c-2.48 3.3-5.98 5.14-10.1 5.14h-75.4c-4.12 0-7.62-1.85-10.1-5.15l-46.96-60.16c-.2-.2-.4-.62-.62-1.03-2.06-3.08-2.68-6.37-1.85-10.08l16.68-75c1.03-4.1 3.3-7.2 7-9.05l68-33.37c1.64-.83 3.08-1.24 4.93-1.44z" stroke="#000" stroke-opacity="0" stroke-width="3.83" fill="#fff"/><path d="M461.72 741.07v-11.13c0-1.15-.1-2.04-.33-2.68-.23-.65-.58-1.1-1.06-1.38-.48-.3-1.2-.43-2.12-.43-1.37 0-2.45.48-3.23 1.45-.8.97-1.2 2.3-1.2 4v10.17H451v-13.8c0-2.05-.03-3.28-.1-3.75h2.67c0 .05.03.2.04.45 0 .23 0 .5.02.82l.07 1.72h.03c.65-1.2 1.4-2.07 2.24-2.55.86-.52 1.93-.77 3.2-.77 1.87 0 3.24.48 4.1 1.45.86.94 1.3 2.52 1.3 4.73v11.7zM483.25 732.32c0-3.08-.66-5.37-1.97-6.86-1.3-1.5-3.22-2.26-5.72-2.26-2.48 0-4.35.78-5.63 2.33-1.26 1.58-1.9 3.84-1.9 6.8 0 6.05 2.54 9.07 7.64 9.07 2.6 0 4.5-.75 5.74-2.22 1.24-1.47 1.85-3.77 1.85-6.86zm-2.97 0c0 2.42-.37 4.18-1.07 5.28-.67 1.1-1.84 1.63-3.5 1.63-1.64 0-2.85-.54-3.6-1.67-.72-1.1-1.1-2.86-1.1-5.24 0-2.3.36-4.06 1.1-5.23.72-1.17 1.88-1.73 3.43-1.73 1.7 0 2.92.54 3.64 1.67.73 1.13 1.1 2.9 1.1 5.28zM497.54 738.25c-.53 1.12-1.22 1.93-2.1 2.4-.86.5-1.93.75-3.2.75-2.15 0-3.75-.76-4.76-2.25-1-1.5-1.5-3.76-1.5-6.78 0-6.12 2.08-9.17 6.25-9.17 1.3 0 2.36.24 3.23.73.86.5 1.55 1.27 2.08 2.32h.02l-.02-1.96V717h2.82v20.44c0 1.83.04 3.05.1 3.64h-2.7c-.04-.17-.06-.6-.1-1.22-.04-.6-.07-1.15-.07-1.6zm-8.6-5.98c0 2.47.32 4.22.94 5.27.64 1.08 1.66 1.6 3.08 1.6 1.6 0 2.76-.57 3.5-1.72.7-1.15 1.08-2.93 1.08-5.34 0-2.32-.37-4.03-1.1-5.1-.72-1.08-1.86-1.64-3.45-1.64-1.44 0-2.46.56-3.12 1.66-.62 1.08-.94 2.83-.94 5.27zM506.9 732.92c0 2 .4 3.57 1.2 4.66.82 1.1 2 1.64 3.55 1.64 1.23 0 2.2-.26 2.95-.77.74-.5 1.24-1.15 1.5-1.93l2.5.73c-1.02 2.77-3.33 4.15-6.95 4.15-2.52 0-4.44-.76-5.76-2.3-1.32-1.56-1.97-3.87-1.97-6.9 0-2.9.65-5.14 1.96-6.7 1.3-1.53 3.2-2.3 5.65-2.3 5 0 7.5 3.1 7.5 9.32v.4zm9.2-2.24c-.14-1.86-.6-3.2-1.35-4.04-.75-.86-1.84-1.27-3.25-1.27-1.38 0-2.48.47-3.28 1.42-.8.93-1.23 2.22-1.3 3.88z" stroke="#000" stroke-opacity="0" fill="#fff"/><path d="M484.77 591.38c-1.6 0-45.56 22.2-46.13 23.37-1.38 2.77-11.45 50.43-10.88 51.48.34.57 7.56 10.06 16.03 20.94l15.44 19.9h50.72l16.14-20.83 16.14-20.7-5.6-25.57c-3.1-14-5.96-25.8-6.2-26.04-.8-.8-44.75-22.55-45.67-22.55zm2.3 11.1l10.3 3.13-10.3 3.13-10.43-3.12zm-10.43 4.4l9.74 2.9v14l-9.74-5.56zm20.73 0v11.34l-9.62 5.55v-14zm-25.08 18.97l10.4 3.13-10.4 3-10.3-3zm25.3 0l10.3 3.13-10.3 3-10.42-3zm-35.6 4.28l9.6 3v13.9l-9.6-5.56zm20.7 0v11.34l-9.72 5.55v-13.88zm4.48 0l9.73 3-.1 13.9-9.62-5.56zm20.72 0v11.34l-9.62 5.55-.1-13.88zm-39.38 17.82c3.1.1.68 3.35 4.23 5.1 3.78 1.72 4.47-2.8 6.87.68 2.3 3.47-2.06 2.66-1.83 6.94.33 4.17 4.68 2.55 2.85 6.48-1.83 3.82-3.2-.58-6.64 1.85-3.42 2.43 0 5.44-4.1 5.8-4.13.33-1.15-3.25-4.93-5.1-3.67-1.85-4.47 2.77-6.87-.7-2.3-3.58 2.17-2.66 1.83-6.94-.34-4.16-4.58-2.66-2.86-6.48 1.83-3.82 3.32.58 6.75-1.85 3.32-2.43-.1-5.44 4-5.78h.7zm26.67 4.28c5.5.1.22 5.43 5.26 7.87 5.04 2.3 5.26-5.44 9.04-1.28 3.78 4.17-3.66 4.05-1.6 9.37 1.95 5.3 7.44.1 7.2 5.78-.1 5.67-5.25.1-7.54 5.32-2.3 5.2 5.15 5.55 1.14 9.5-4 3.8-3.9-3.83-9.04-1.75-5.16 1.97-.12 7.63-5.6 7.52-5.5-.23-.13-5.55-5.17-7.87-5.04-2.3-5.4 5.32-9.16 1.16-3.78-4.05 3.66-3.93 1.7-9.25-2.05-5.32-7.43-.1-7.3-5.78.1-5.78 5.25-.23 7.54-5.44 2.3-5.2-5.15-5.43-1.14-9.37 4-3.92 3.9 3.7 9.04 1.75 5.15-2.1.12-7.64 5.6-7.52zm-26.45 3c-3.32 0-6.07 2.78-6.07 6.25s2.75 6.25 6.06 6.25c3.44 0 6.07-2.78 6.07-6.25s-2.62-6.24-6.06-6.24zm25.87 5.67c-6.64 0-12.14 5.56-12.14 12.5 0 6.82 5.5 12.5 12.14 12.5 6.75 0 12.13-5.68 12.13-12.5 0-6.94-5.38-12.5-12.13-12.5z" stroke="#000" stroke-opacity="0" stroke-width="0" fill="#fff"/><use xlink:href="#A" transform="matrix(1,0,0,1,352,772.0000000000002) translate(99.77777777777777 21.333333333333336)"/><path d="M466.67 1397.56c-1.1.1-1.98.33-2.86.77l-38.12 18.8c-2.1.98-3.5 2.74-3.95 5.04l-9.45 42.3c-.44 2-.1 3.96 1 5.72.1.2.2.32.42.54l26.38 33.85c1.43 1.85 3.4 2.84 5.7 2.84h42.43c2.3 0 4.3-1 5.72-2.86l26.37-33.84c1.42-1.87 1.97-4.06 1.42-6.37l-9.45-42.2c-.44-2.3-1.87-4.06-3.95-5.05l-38.13-18.8c-1.22-.54-2.32-.87-3.53-.76z" stroke="#000" stroke-opacity="0" stroke-width="0" fill="#326ce5"/><path d="M466.65 1394.5c-1.16.12-2.1.35-3 .8l-40.27 19.85c-2.2 1.04-3.7 2.9-4.17 5.33l-9.97 44.66c-.46 2.1-.1 4.18 1.05 6.04.1.23.23.34.46.58l27.84 35.72c1.5 1.98 3.6 3.02 6.03 3.02h44.8c2.42 0 4.5-1.04 6.02-3.02l27.84-35.72c1.5-1.98 2.1-4.3 1.5-6.62l-9.97-44.66c-.47-2.43-1.98-4.3-4.18-5.33l-40.26-19.84c-1.27-.57-2.43-.92-3.7-.8zm0 3.02c1.28 0 2.32.23 3.48.8l38.28 18.8c1.98 1.04 3.38 2.78 3.96 5.1l9.4 42.23c.46 2.32 0 4.4-1.4 6.26l-26.45 33.88c-1.38 1.86-3.35 2.9-5.67 2.9h-42.46c-2.32 0-4.3-1.04-5.68-2.9l-26.46-33.87c-.12-.1-.23-.34-.35-.57-1.17-1.74-1.52-3.6-1.05-5.68l9.4-42.23c.57-2.32 1.85-4.06 3.94-5.1l38.27-18.8c.93-.46 1.74-.7 2.78-.8z" stroke="#000" stroke-opacity="0" stroke-width="0" fill="#fff"/><path d="M466.87 1419.93c-.9 0-25.66 12.5-25.98 13.16-.78 1.55-6.46 28.4-6.13 28.98.2.32 4.25 5.66 9.02 11.8l8.7 11.2h28.55l9.1-11.73 9.1-11.66-3.17-14.4c-1.75-7.9-3.36-14.54-3.48-14.67-.46-.46-25.2-12.7-25.73-12.7zm1.55 13.16c1.16.05 1.3 1.88 3.87 2.07 3.34.26 3.02-2.93 5.53-.72 2.58 2.28-.58 2.42.26 5.8.76 3.4 3.66 2.02 2.37 5.2-1.3 3.27-2.38.2-5.28 2.03-2.85 1.83-.72 4.24-4.07 3.98-3.36-.26-.9-2.28-3.5-4.56-2.56-2.22-4.1.58-4.88-2.8-.84-3.32 1.8-1.57 3.1-4.76 1.28-3.26-1.8-3.9 1.02-5.73.4-.2.7-.32.97-.45.2-.06.4-.06.58-.06zm3.35 3.77c-.5 0-.97.06-1.48.2-2.53.77-4 3.57-3.24 6.25.78 2.67 3.5 4.16 6.06 3.38 2.58-.84 4.07-3.64 3.3-6.25-.65-2.15-2.52-3.58-4.65-3.58zm-19.28 8.6c.25 0 .57.06.96.2 3.1.97-.06 2.66 2.13 5.07 2.25 2.48 4.05-.65 4.76 2.6.77 3.2-2.26 1.25-3.16 4.44-.97 3.2 2.58 3.26.2 5.54-2.33 2.28-2.2-1.37-5.36-.6-3.16.72-1.42 3.92-4.5 2.94-3.1-.98.06-2.6-2.2-5.08-2.2-2.4-4 .65-4.7-2.54-.78-3.26 2.18-1.3 3.15-4.5.96-3.2-2.6-3.25-.2-5.53 2.32-2.27 2.2 1.37 5.35.66 2.7-.65 1.8-3.2 3.54-3.2zm22.95 3.5c.32 0 .64.08 1.1.27 3.54 1.44-1.1 3.6 1.6 6.32 2.78 2.74 4.7-2.2 6.26 1.37 1.55 3.65-3.28 1.76-3.22 5.67.13 3.97 4.84 1.9 3.5 5.54-1.43 3.64-3.56-1.18-6.2 1.7-2.65 2.86 2.12 4.8-1.36 6.37-3.48 1.64-1.67-3.37-5.48-3.24-3.8.06-1.8 4.95-5.35 3.5-3.56-1.42 1.1-3.57-1.62-6.3-2.77-2.74-4.7 2.2-6.25-1.44-1.55-3.58 3.28-1.7 3.22-5.66-.13-3.9-4.84-1.83-3.48-5.48 1.42-3.7 3.54 1.18 6.2-1.7 2.63-2.86-2.14-4.8 1.34-6.38 3.5-1.63 1.7 3.33 5.5 3.26 3.34-.06 2.18-3.84 4.25-3.78zm-24.95 1.7c-2.7 0-4.9 2.22-4.9 5.02 0 2.73 2.2 5 4.9 5s4.83-2.27 4.83-5c0-2.8-2.13-5.02-4.83-5.02zm20.88 4.76c-3.93.07-7.15 3.33-7.15 7.43s3.22 7.36 7.15 7.36c4 0 7.23-3.26 7.23-7.36 0-4.1-3.22-7.43-7.22-7.43z" stroke="#eee" stroke-width="0" fill="#fff"/><use xlink:href="#B" transform="matrix(1,0,0,1,379,1519.5000000000005) translate(45.11111111111111 21.333333333333336)"/><path d="M391.44 1452.5h-38a6 6 0 0 1-6-6V666a6 6 0 0 1 6-6h13.37" stroke="#5e5e5e" stroke-width="3" fill="none"/><path d="M407.2 1452.5l-14.26 4.63v-9.27zM382.57 660l-14.26 4.63v-9.26z" stroke="#5e5e5e" stroke-width="3" fill="#5e5e5e"/><path d="M594.9 932.43c-1.94.2-3.5.6-5.06 1.37l-67.72 33.37c-3.7 1.75-6.24 4.88-7.02 8.98l-16.78 75.12c-.78 3.5-.2 7.03 1.75 10.15.2.4.4.58.78.97l46.84 60.1c2.53 3.3 6.04 5.07 10.14 5.07h75.32c4.1 0 7.6-1.76 10.15-5.07l46.84-60.1c2.54-3.32 3.52-7.23 2.54-11.32l-16.78-74.93c-.78-4.1-3.32-7.23-7.03-8.98l-67.7-33.37c-2.16-.97-4.1-1.56-6.26-1.37z" stroke="#000" stroke-opacity="0" stroke-width="0" fill="#326ce5"/><path d="M594.88 927c-2.06.2-3.7.62-5.35 1.44l-71.5 35.23c-3.9 1.85-6.58 5.15-7.4 9.47l-17.72 79.3c-.8 3.72-.2 7.43 1.87 10.73.2.4.4.6.82 1.03l49.43 63.44c2.68 3.5 6.4 5.36 10.7 5.36h79.53c4.32 0 8.03-1.85 10.7-5.36l49.45-63.44c2.7-3.5 3.72-7.63 2.7-11.75l-17.73-79.3c-.82-4.33-3.5-7.63-7.4-9.48l-71.5-35.23c-2.26-1.03-4.32-1.65-6.6-1.44zm0 5.36c2.27 0 4.12.4 6.18 1.44l67.98 33.37c3.5 1.85 5.98 4.94 7 9.06l16.7 75c.82 4.1 0 7.82-2.48 11.1l-46.97 60.16c-2.48 3.3-5.98 5.14-10.1 5.14h-75.4c-4.12 0-7.62-1.85-10.1-5.15l-46.96-60.16c-.2-.2-.4-.62-.62-1.03-2.06-3.08-2.68-6.37-1.85-10.08l16.68-75c1.03-4.1 3.3-7.2 7-9.05l68-33.37c1.64-.83 3.08-1.24 4.93-1.44z" stroke="#000" stroke-opacity="0" stroke-width="0" fill="#fff"/><path d="M572.75 986.42v8.78h6.04v-5.65h12.48v-6.26H575.8c-2.5 0-3.05.83-3.05 3.12zm30.6 3.13h24.18v-6.26h-24.17zm36.26 0h7.66v10.77h6.04v-13.9c0-2.47-1.28-3.07-3.06-3.13H639.6zm-66.85 21.24v21.78h6.04v-24.92h-6.05zm74.5 5.1v21.86h6.05v-24.98h-6.04zm-66.93 27.57h24.17v-6.26H580.3zm50.03 0h10.4v-6.26h-10.4z" stroke="#000" stroke-opacity="0" stroke-width="3.77" fill="#fff"/><path d="M555.17 1003.03v11.32h6.05v-8.2h10.06v-6.25h-13.04c-2.5 0-3.07.85-3.07 3.13zm28.28 3.13h24.08v-6.25h-24.08zm36.17 0h10.07v8.3h6.03v-11.43c0-1.92-.8-3.18-2.98-3.13h-13.13zm-64.45 23.77v21.78h6.05v-24.9h-6.05zm74.52.12v21.78h6.03v-24.9h-6.04zm-64.54 30.02h24.17v-6.2h-24.17zm36.25 0h24.18v-6.2H601.4z" stroke="#000" stroke-opacity="0" stroke-width="3.77" fill="#fff"/><path d="M537.6 1073.7v-57.18l77.1.06c2.42 0 3.47 2.05 3.47 3.55l-.08 53.45c-.1 2.05-1.7 3.2-3.32 3.13h-74.13c-1.37 0-3.14-1.13-3.06-3z" stroke="#000" stroke-opacity="0" stroke-width="3.77" fill="#fff"/><use xlink:href="#C" transform="matrix(1,0,0,1,462.5000000000002,1142.0000000000005) translate(64.96296296296298 21.333333333333332)"/><path d="M3017.4 509.44c-1.94.2-3.5.58-5.06 1.36l-67.72 33.37c-3.7 1.76-6.24 4.88-7.02 8.98l-16.78 75.12c-.78 3.52-.2 7.03 1.75 10.15.2.4.4.6.78.98l46.84 60.1c2.53 3.32 6.04 5.07 10.14 5.07h75.32c4.1 0 7.6-1.75 10.15-5.07l46.84-60.1c2.54-3.32 3.52-7.22 2.54-11.32l-16.78-74.93c-.78-4.1-3.32-7.22-7.03-8.98l-67.7-33.37c-2.16-.97-4.1-1.56-6.26-1.36z" stroke="#000" stroke-opacity="0" stroke-width="3.83" fill="#326ce5"/><path d="M3017.38 504c-2.06.2-3.7.62-5.35 1.44l-71.5 35.23c-3.9 1.85-6.58 5.15-7.4 9.47l-17.72 79.3c-.8 3.72-.2 7.43 1.87 10.73.2.4.4.6.82 1.03l49.43 63.44c2.68 3.5 6.4 5.36 10.7 5.36h79.53c4.32 0 8.03-1.85 10.7-5.36l49.45-63.44c2.7-3.5 3.72-7.63 2.7-11.75l-17.73-79.3c-.82-4.33-3.5-7.63-7.4-9.48l-71.5-35.23c-2.26-1.03-4.32-1.65-6.6-1.44zm0 5.56c2.27-.2 4.12.2 6.18 1.24l67.98 33.37c3.5 1.85 5.98 4.94 7 9.06l16.7 75c.82 4.1 0 7.82-2.48 11.1l-46.97 60.16c-2.48 3.3-5.98 5.14-10.1 5.14h-75.4c-4.12 0-7.62-1.85-10.1-5.15l-46.96-60.16c-.2-.2-.4-.62-.62-1.03-2.06-3.08-2.68-6.37-1.85-10.08l16.68-75c1.03-4.1 3.3-7.2 7-9.05l68-33.37c1.64-.83 3.08-1.24 4.93-1.44z" stroke="#000" stroke-opacity="0" stroke-width="3.83" fill="#fff"/><path d="M2994.72 688.07v-11.13c0-1.15-.1-2.04-.33-2.68-.23-.65-.58-1.1-1.06-1.38-.48-.3-1.2-.43-2.12-.43-1.37 0-2.45.48-3.23 1.45-.8.97-1.2 2.3-1.2 4v10.17h-2.83v-13.8c0-2.05-.02-3.28-.1-3.75h2.68c0 .05.03.2.04.45 0 .23 0 .5.02.82.03.3.04.87.07 1.72h.03c.65-1.2 1.4-2.07 2.24-2.55.87-.52 1.93-.77 3.2-.77 1.87 0 3.24.48 4.1 1.45.86.94 1.3 2.52 1.3 4.73v11.7zM3016.25 679.32c0-3.08-.66-5.37-1.97-6.86-1.3-1.5-3.22-2.26-5.72-2.26-2.48 0-4.35.78-5.63 2.33-1.26 1.58-1.9 3.84-1.9 6.8 0 6.05 2.54 9.07 7.64 9.07 2.6 0 4.5-.75 5.74-2.22 1.24-1.47 1.85-3.77 1.85-6.86zm-2.97 0c0 2.42-.37 4.18-1.07 5.28-.67 1.1-1.84 1.63-3.48 1.63-1.66 0-2.87-.54-3.6-1.67-.74-1.1-1.12-2.86-1.12-5.24 0-2.3.36-4.06 1.1-5.23.72-1.17 1.88-1.73 3.43-1.73 1.7 0 2.92.54 3.64 1.67.73 1.13 1.1 2.9 1.1 5.28zM3030.54 685.25c-.53 1.12-1.22 1.93-2.1 2.4-.86.5-1.93.75-3.2.75-2.15 0-3.75-.76-4.76-2.25-1-1.5-1.5-3.76-1.5-6.78 0-6.12 2.08-9.17 6.25-9.17 1.3 0 2.36.24 3.23.73.86.5 1.55 1.27 2.08 2.32h.03l-.03-1.96V664h2.82v20.44c0 1.83.05 3.05.1 3.64h-2.7c-.04-.17-.07-.6-.1-1.22-.04-.6-.07-1.15-.07-1.6zm-8.6-5.98c0 2.47.32 4.22.94 5.27.64 1.08 1.66 1.6 3.08 1.6 1.6 0 2.76-.57 3.5-1.72.7-1.15 1.08-2.93 1.08-5.34 0-2.32-.37-4.03-1.1-5.1-.72-1.08-1.86-1.64-3.45-1.64-1.43 0-2.46.56-3.12 1.66-.62 1.08-.94 2.83-.94 5.27zM3039.9 679.92c0 2 .4 3.57 1.2 4.66.82 1.1 2 1.64 3.55 1.64 1.23 0 2.2-.26 2.95-.77.74-.5 1.24-1.15 1.5-1.93l2.5.73c-1.02 2.77-3.33 4.15-6.95 4.15-2.52 0-4.44-.76-5.76-2.3-1.32-1.56-1.97-3.87-1.97-6.9 0-2.9.65-5.14 1.96-6.7 1.3-1.53 3.2-2.3 5.65-2.3 5 0 7.5 3.1 7.5 9.32v.4zm9.2-2.24c-.14-1.86-.6-3.2-1.35-4.04-.75-.86-1.84-1.27-3.25-1.27-1.38 0-2.48.47-3.28 1.42-.8.93-1.22 2.22-1.28 3.88z" stroke="#000" stroke-opacity="0" fill="#fff"/><path d="M3017.77 538.38c-1.6 0-45.56 22.2-46.13 23.37-1.38 2.77-11.45 50.43-10.88 51.48.34.57 7.55 10.06 16.03 20.94l15.44 19.9h50.72l16.14-20.83 16.14-20.7-5.6-25.57c-3.1-14-5.96-25.8-6.2-26.04-.8-.8-44.75-22.55-45.67-22.55zm2.3 11.1l10.3 3.13-10.3 3.13-10.43-3.12zm-10.43 4.4l9.74 2.9v14l-9.74-5.56zm20.73 0v11.34l-9.62 5.55v-14zm-25.08 18.97l10.4 3.13-10.4 3-10.3-3zm25.3 0l10.3 3.13-10.3 3-10.42-3zm-35.6 4.28l9.6 3v13.9l-9.6-5.56zm20.7 0v11.34l-9.72 5.55v-13.88zm4.48 0l9.73 3-.1 13.9-9.62-5.56zm20.72 0v11.34l-9.62 5.55-.1-13.88zm-39.38 17.82c3.1.1.68 3.35 4.23 5.1 3.78 1.72 4.47-2.8 6.87.68 2.3 3.47-2.06 2.66-1.83 6.94.33 4.17 4.68 2.55 2.85 6.48-1.83 3.82-3.2-.58-6.64 1.85-3.42 2.43 0 5.44-4.1 5.8-4.13.33-1.16-3.25-4.93-5.1-3.67-1.85-4.47 2.77-6.87-.7-2.3-3.58 2.17-2.66 1.83-6.94-.34-4.16-4.58-2.66-2.86-6.48 1.83-3.82 3.32.58 6.75-1.85 3.32-2.43-.1-5.44 4-5.78h.7zm26.67 4.28c5.5.1.22 5.43 5.26 7.87 5.03 2.3 5.26-5.44 9.04-1.28 3.78 4.17-3.66 4.05-1.6 9.37 1.94 5.3 7.44.1 7.2 5.78-.1 5.67-5.26.1-7.54 5.32-2.3 5.2 5.15 5.55 1.14 9.5-4 3.8-3.9-3.83-9.04-1.75-5.16 1.97-.12 7.63-5.6 7.52-5.5-.23-.13-5.55-5.17-7.87-5.04-2.3-5.4 5.32-9.16 1.16-3.78-4.05 3.66-3.93 1.7-9.25-2.05-5.32-7.43-.1-7.3-5.78.1-5.78 5.25-.23 7.54-5.44 2.3-5.2-5.15-5.43-1.14-9.37 4-3.92 3.9 3.7 9.04 1.75 5.15-2.1.12-7.64 5.6-7.52zm-26.45 3c-3.32 0-6.07 2.78-6.07 6.25s2.75 6.25 6.07 6.25c3.43 0 6.06-2.78 6.06-6.25s-2.62-6.24-6.06-6.24zm25.87 5.67c-6.64 0-12.14 5.56-12.14 12.5 0 6.82 5.5 12.5 12.14 12.5 6.75 0 12.13-5.68 12.13-12.5 0-6.94-5.38-12.5-12.13-12.5z" stroke="#000" stroke-opacity="0" stroke-width="0" fill="#fff"/><use xlink:href="#A" transform="matrix(1,0,0,1,2885.0000000000005,719.0000000000003) translate(99.77777777777777 21.333333333333336)"/><path d="M3010.17 1393.06c-1.1.1-1.98.33-2.86.77l-38.12 18.8c-2.1.98-3.5 2.74-3.95 5.04l-9.45 42.3c-.44 2-.1 3.96.98 5.72.1.2.22.32.44.54l26.38 33.85c1.43 1.85 3.4 2.84 5.7 2.84h42.43c2.32 0 4.3-1 5.72-2.86l26.37-33.84c1.42-1.87 1.97-4.06 1.42-6.37l-9.45-42.2c-.44-2.3-1.86-4.06-3.95-5.05l-38.13-18.8c-1.22-.54-2.32-.87-3.53-.76z" stroke="#000" stroke-opacity="0" stroke-width="0" fill="#326ce5"/><path d="M3010.15 1390c-1.16.12-2.1.35-3 .8l-40.27 19.85c-2.2 1.04-3.7 2.9-4.17 5.33l-9.97 44.66c-.46 2.1-.1 4.18 1.05 6.04.1.23.23.34.46.58l27.84 35.72c1.5 1.98 3.6 3.02 6.03 3.02h44.8c2.42 0 4.5-1.04 6.02-3.02l27.84-35.72c1.5-1.98 2.1-4.3 1.5-6.62l-9.97-44.66c-.47-2.43-1.98-4.3-4.18-5.33l-40.26-19.84c-1.27-.57-2.43-.92-3.7-.8zm0 3.02c1.28 0 2.32.23 3.48.8l38.28 18.8c1.98 1.04 3.38 2.78 3.96 5.1l9.4 42.23c.46 2.32 0 4.4-1.4 6.26l-26.45 33.88c-1.38 1.86-3.35 2.9-5.67 2.9h-42.46c-2.32 0-4.3-1.04-5.68-2.9l-26.46-33.87c-.12-.1-.23-.34-.35-.57-1.17-1.74-1.52-3.6-1.05-5.68l9.4-42.23c.57-2.32 1.85-4.06 3.94-5.1l38.27-18.8c.93-.46 1.74-.7 2.78-.8z" stroke="#000" stroke-opacity="0" stroke-width="0" fill="#fff"/><path d="M3010.37 1415.43c-.9 0-25.66 12.5-25.98 13.16-.78 1.55-6.46 28.4-6.14 28.98.2.32 4.26 5.66 9.03 11.8l8.7 11.2h28.55l9.1-11.73 9.1-11.66-3.17-14.4c-1.74-7.9-3.36-14.54-3.5-14.67-.44-.46-25.2-12.7-25.7-12.7zm1.55 13.16c1.16.05 1.3 1.88 3.87 2.07 3.34.26 3.02-2.93 5.53-.72 2.58 2.28-.58 2.42.26 5.8.76 3.4 3.66 2.02 2.37 5.2-1.28 3.27-2.38.2-5.28 2.03-2.85 1.83-.72 4.24-4.07 3.98-3.36-.26-.9-2.28-3.5-4.56-2.56-2.22-4.1.58-4.9-2.8-.82-3.32 1.82-1.57 3.1-4.76 1.3-3.26-1.8-3.9 1.04-5.73.4-.2.7-.32.97-.45.2-.06.38-.06.58-.06zm3.35 3.77c-.5 0-.97.06-1.48.2-2.53.77-4 3.57-3.24 6.25.78 2.67 3.5 4.16 6.07 3.38 2.57-.84 4.06-3.64 3.28-6.25-.63-2.15-2.5-3.58-4.63-3.58zm-19.28 8.6c.25 0 .57.06.96.2 3.1.97-.06 2.66 2.13 5.07 2.24 2.48 4.05-.65 4.76 2.6.77 3.2-2.26 1.25-3.16 4.44-.97 3.2 2.58 3.26.2 5.54-2.33 2.28-2.2-1.37-5.36-.6-3.16.72-1.4 3.92-4.5 2.94s.05-2.6-2.2-5.08c-2.2-2.4-4 .65-4.7-2.54-.78-3.26 2.18-1.3 3.15-4.5.96-3.2-2.6-3.25-.2-5.53 2.32-2.27 2.2 1.37 5.35.66 2.7-.65 1.8-3.2 3.54-3.2zm22.95 3.5c.32 0 .64.08 1.1.27 3.54 1.44-1.1 3.6 1.6 6.32 2.78 2.74 4.7-2.2 6.26 1.37 1.55 3.65-3.28 1.76-3.22 5.67.13 3.97 4.84 1.9 3.5 5.54-1.43 3.64-3.56-1.18-6.2 1.7-2.65 2.86 2.12 4.8-1.36 6.37-3.48 1.64-1.67-3.37-5.48-3.24-3.8.06-1.8 4.95-5.35 3.5-3.56-1.42 1.1-3.57-1.62-6.3-2.77-2.74-4.7 2.2-6.25-1.44-1.55-3.58 3.28-1.7 3.22-5.66-.13-3.9-4.84-1.83-3.48-5.48 1.42-3.7 3.54 1.18 6.2-1.7 2.63-2.86-2.14-4.8 1.34-6.38 3.5-1.63 1.7 3.33 5.5 3.26 3.34-.06 2.18-3.84 4.25-3.78zm-24.95 1.7c-2.7 0-4.9 2.22-4.9 5.02 0 2.73 2.2 5 4.9 5s4.83-2.27 4.83-5c0-2.8-2.13-5.02-4.83-5.02zm20.88 4.76c-3.93.07-7.15 3.33-7.15 7.43s3.22 7.36 7.15 7.36c4 0 7.22-3.26 7.22-7.36 0-4.1-3.22-7.43-7.22-7.43z" stroke="#eee" stroke-width="0" fill="#fff"/><use xlink:href="#B" transform="matrix(1,0,0,1,2922.5000000000005,1515.0000000000005) translate(45.11111111111111 21.333333333333336)"/><path d="M3086.06 1448H3145a6 6 0 0 0 6-6V613a6 6 0 0 0-6-6h-8.8" stroke="#000" stroke-width="3" fill="none"/><path d="M3070.3 1448l14.26-4.63v9.27zM3120.43 607l14.26-4.63v9.26z" stroke="#000" stroke-width="3"/><path d="M2882.9 974.93c-1.94.2-3.5.6-5.06 1.37l-67.72 33.37c-3.7 1.75-6.24 4.88-7.02 8.98l-16.78 75.12c-.78 3.5-.2 7.03 1.75 10.15.2.4.4.58.78.97l46.84 60.1c2.53 3.3 6.04 5.07 10.14 5.07h75.32c4.1 0 7.6-1.76 10.15-5.07l46.84-60.1c2.54-3.32 3.52-7.23 2.54-11.32l-16.78-74.93c-.78-4.1-3.32-7.23-7.03-8.98l-67.7-33.37c-2.16-.97-4.1-1.56-6.26-1.37z" stroke="#000" stroke-opacity="0" stroke-width="0" fill="#326ce5"/><path d="M2882.88 969.5c-2.06.2-3.7.62-5.35 1.44l-71.5 35.23c-3.9 1.85-6.58 5.15-7.4 9.47l-17.72 79.3c-.8 3.72-.2 7.43 1.87 10.73.2.4.4.6.82 1.03l49.43 63.44c2.68 3.5 6.4 5.36 10.7 5.36h79.53c4.32 0 8.03-1.85 10.7-5.36l49.45-63.44c2.7-3.5 3.72-7.63 2.7-11.75l-17.73-79.3c-.82-4.33-3.5-7.63-7.4-9.48l-71.5-35.23c-2.26-1.03-4.32-1.65-6.6-1.44zm0 5.36c2.27 0 4.12.4 6.18 1.44l67.98 33.37c3.5 1.85 5.98 4.94 7 9.06l16.7 75c.82 4.1 0 7.82-2.48 11.1L2931.3 1165c-2.48 3.3-5.98 5.14-10.1 5.14h-75.4c-4.12 0-7.62-1.85-10.1-5.15l-46.96-60.16c-.2-.2-.4-.62-.62-1.03-2.06-3.08-2.68-6.37-1.85-10.08l16.68-75c1.03-4.1 3.3-7.2 7-9.05l68-33.37c1.64-.83 3.08-1.24 4.93-1.44z" stroke="#000" stroke-opacity="0" stroke-width="0" fill="#fff"/><path d="M2860.75 1028.92v8.78h6.04v-5.65h12.47v-6.26h-15.46c-2.5 0-3.05.83-3.05 3.12zm30.6 3.13h24.18v-6.26h-24.17zm36.26 0h7.66v10.77h6.04v-13.9c0-2.47-1.28-3.07-3.06-3.13h-10.63zm-66.85 21.24v21.78h6.04v-24.92h-6.05zm74.5 5.1v21.86h6.05v-24.98h-6.04zm-66.93 27.57h24.17v-6.26h-24.18zm50.03 0h10.4v-6.26h-10.4z" stroke="#000" stroke-opacity="0" stroke-width="3.77" fill="#fff"/><path d="M2843.17 1045.53v11.32h6.05v-8.2h10.07l-.02-6.25h-13.05c-2.5 0-3.06.85-3.06 3.13zm28.28 3.13h24.1l-.02-6.26h-24.08zm36.17 0h10.07v8.3h6.03v-11.43c0-1.92-.8-3.18-2.98-3.13h-13.13zm-64.45 23.77v21.78h6.05v-24.9h-6.05zm74.52.12v21.78h6.03v-24.9h-6.04zm-64.54 30.02h24.17v-6.2h-24.17zm36.25 0h24.18v-6.2h-24.17z" stroke="#000" stroke-opacity="0" stroke-width="3.77" fill="#fff"/><path d="M2825.6 1116.2v-57.18l77.1.06c2.42 0 3.47 2.05 3.47 3.55l-.08 53.45c-.1 2.05-1.7 3.2-3.32 3.13h-74.13c-1.37 0-3.14-1.13-3.06-3z" stroke="#000" stroke-opacity="0" stroke-width="3.77" fill="#fff"/><use xlink:href="#C" transform="matrix(1,0,0,1,2750.5,1184.5000000000005) translate(64.96296296296298 21.333333333333332)"/><path d="M2616.17 239.75c-56.86 0-103-46.14-103-103s46.14-103 103-103c56.85 0 103 46.14 103 103s-46.15 103-103 103zm0-197.14c-52.12 0-94.14 42.03-94.14 94.15 0 52.12 42.02 94.14 94.14 94.14 52.1 0 94.14-42.03 94.14-94.15 0-52.12-42.02-94.14-94.13-94.14z" stroke="#fff" stroke-opacity="0" fill="#693cc5"/><path d="M2628.5 194.56h-36.13v-8.8h31.75V95.98h-31.75v-8.8h36.12c2.42 0 4.37 1.93 4.37 4.4v98.58c0 2.47-1.95 4.4-4.38 4.4z" stroke="#fff" stroke-opacity="0" fill="#693cc5"/><path d="M2591.5 136.5h78.05v8.75h-78.06v-8.76zM2562.72 112.38c-.67 0-1.26-.12-1.87-.46-1.56-.7-2.5-2.2-2.5-3.9V75.13c0-1.75.94-3.2 2.5-3.95 1.55-.76 3.28-.6 4.66.5l20.5 16.44c1.1.87 1.68 2.04 1.68 3.4 0 1.4-.6 2.6-1.67 3.43l-20.5 16.45c-.8.67-1.72.96-2.78.96zm4.4-28.16V98.9l9.15-7.35zM2562.72 161.7c-.67 0-1.26-.14-1.87-.47-1.56-.7-2.5-2.2-2.5-3.9v-32.88c0-1.75.94-3.2 2.5-3.95 1.55-.75 3.28-.6 4.66.5l20.5 16.45c1.1.87 1.68 2.04 1.68 3.4 0 1.4-.6 2.6-1.67 3.43l-20.5 16.45c-.8.67-1.72.96-2.78.96zm4.4-28.17v14.66l9.15-7.34z" stroke="#fff" stroke-opacity="0" fill="#693cc5"/><path d="M2673.66 165.76c-.6 0-1.1-.1-1.64-.3-1.7-.7-2.73-2.24-2.73-4.08v-41.1c0-2.38 1.92-4.38 4.36-4.38 1.2 0 2.26.45 3.14 1.3l20.55 20.54c1.68 1.75 1.68 4.5 0 6.2l-20.55 20.58c-.88.85-1.9 1.24-3.14 1.24zm4.4-35.05v19.96l10-9.97zM2562.75 206.88c-.7 0-1.3-.13-1.9-.46-1.56-.7-2.5-2.2-2.5-3.92v-32.86c0-2.46 1.94-4.42 4.37-4.42 1.06 0 1.96.34 2.78 1l20.5 16.4c1.9 1.5 2.2 4.3.68 6.18-.2.25-.4.46-.67.67l-20.5 16.45c-.82.67-1.72.96-2.75.96zm4.36-28.16v14.66l9.18-7.33z" stroke="#fff" stroke-opacity="0" fill="#693cc5"/><use xlink:href="#x" transform="matrix(1,0,0,1,2483.1666666666665,248.7500000000001) translate(50.48148148148148 21.333333333333336)"/><use xlink:href="#y" transform="matrix(1,0,0,1,2483.1666666666665,248.7500000000001) translate(110.48148148148148 21.333333333333336)"/><path d="M1662.17 361.5h182v176h-182v-176z" stroke="#000" stroke-opacity="0" fill="url(#D)"/><path d="M1764.27 452.27c-.48 3.7-1.55 7.28-3.22 10.62l22.8 18.35c1.9-.92 4.06-1.5 6.33-1.5 7.76 0 14.2 6.12 14.2 13.74 0 7.6-6.44 13.73-14.2 13.73-7.88 0-14.33-6.12-14.33-13.74 0-3.36 1.3-6.48 3.46-8.8l-21.12-16.96c-6.45 8.9-17.07 14.78-29.13 14.78-19.58 0-35.58-15.47-35.58-34.4 0-18.94 16-34.4 35.58-34.4 12.77 0 24 6.68 30.33 16.6l19.93-16.03c-2.14-2.32-3.45-5.44-3.45-8.8 0-7.6 6.45-13.73 14.33-13.73 7.76 0 14.2 6.12 14.2 13.74 0 7.63-6.44 13.75-14.2 13.75-2.27 0-4.42-.58-6.33-1.5L1762 435.4c1.43 3.48 2.27 7.3 2.5 11.33h20.2c1.3-6.24 7.03-10.97 13.95-10.97 7.88 0 14.2 6.12 14.2 13.74s-6.3 13.74-14.2 13.74c-6.92 0-12.65-4.73-13.96-10.97zm-35.22 24.7c16.36 0 29.85-12.92 29.85-28.86 0-15.92-13.5-28.85-29.85-28.85-16.48 0-29.85 12.93-29.85 28.87 0 15.93 13.37 28.86 29.85 28.86zm61.13-79.66c-4.78 0-8.6 3.7-8.6 8.2 0 4.5 3.82 8.2 8.6 8.2 4.65 0 8.47-3.7 8.47-8.2 0-4.5-3.82-8.2-8.47-8.2zm8.47 96.2c0-4.5-3.82-8.2-8.47-8.2-4.78 0-8.6 3.7-8.6 8.2 0 4.5 3.82 8.2 8.6 8.2 4.65 0 8.47-3.7 8.47-8.2zm0-52.2c-4.65 0-8.47 3.7-8.47 8.2 0 4.5 3.82 8.2 8.47 8.2 4.66 0 8.48-3.7 8.48-8.2 0-4.5-3.82-8.2-8.48-8.2z" stroke="#000" stroke-opacity="0" fill="#fff"/><use xlink:href="#E" transform="matrix(1,0,0,1,1632.1666666666665,546.5000000000001) translate(42.62962962962963 21.333333333333332)"/><use xlink:href="#F" transform="matrix(1,0,0,1,1632.1666666666665,546.5000000000001) translate(135.88888888888889 21.333333333333332)"/><use xlink:href="#G" transform="matrix(1,0,0,1,1632.1666666666665,546.5000000000001) translate(57.44444444444446 53.33333333333333)"/><path d="M1024.3 890.73c-1.15.1-2.08.35-3 .8l-40.22 19.82c-2.2 1.05-3.7 2.9-4.17 5.33l-9.96 44.62c-.46 2.1-.1 4.17 1.05 6.03.1.23.22.34.45.57l27.8 35.7c1.52 1.97 3.6 3 6.04 3H1047c2.43 0 4.52-1.03 6.03-3l27.8-35.7c1.52-1.97 2.1-4.28 1.52-6.72l-9.97-44.5c-.46-2.43-1.97-4.28-4.17-5.33l-40.2-19.8c-1.3-.6-2.45-.94-3.72-.82z" stroke="#000" stroke-opacity="0" stroke-width="0" fill="#326ce5"/><path d="M1024.3 887.5c-1.23.12-2.2.37-3.2.86l-42.44 20.9c-2.32 1.12-3.92 3.07-4.4 5.64L963.73 962c-.5 2.2-.12 4.4 1.1 6.36.13.25.25.37.5.6l29.35 37.7c1.6 2.07 3.8 3.17 6.37 3.17h47.22c2.57 0 4.77-1.1 6.36-3.18l29.36-37.68c1.58-2.08 2.2-4.52 1.58-6.97l-10.52-47.1c-.5-2.57-2.08-4.52-4.4-5.63l-42.46-20.9c-1.34-.63-2.57-1-3.9-.87zm0 3.18c1.34 0 2.44.25 3.66.86l40.37 19.82c2.08 1.1 3.55 2.93 4.16 5.38l9.9 44.53c.5 2.44 0 4.65-1.47 6.6l-27.9 35.72c-1.46 1.95-3.54 3.05-6 3.05h-44.76c-2.45 0-4.53-1.1-6-3.06l-27.9-35.73c-.1-.12-.23-.36-.35-.6-1.23-1.84-1.6-3.8-1.1-6l9.9-44.53c.62-2.45 1.96-4.28 4.16-5.38l40.37-19.82c.98-.5 1.84-.74 2.94-.86z" stroke="#000" stroke-opacity="0" stroke-width="0" fill="#fff"/><path d="M1000.1 930.93l24.56-7.33 24.55 7.33-24.54 7.34zM1000.1 933.75v26.9l22.88 13.1.1-32.97zM1049.2 933.75v26.9l-22.87 13.1-.1-32.97z" stroke="#000" stroke-opacity="0" fill="#fff"/><use xlink:href="#H" transform="matrix(1,0,0,1,933.4895833333325,1018.8333333333337) translate(66.38888888888889 21.333333333333336)"/><path d="M1207.9 1082.23c-1.16.1-2.08.35-3 .8l-40.22 19.82c-2.2 1.05-3.7 2.9-4.18 5.34l-9.96 44.6c-.47 2.1-.12 4.17 1.04 6.03.12.23.23.34.47.57l27.8 35.7c1.5 1.97 3.6 3 6.03 3h44.75c2.43 0 4.52-1.03 6.02-3l27.8-35.7c1.52-1.97 2.1-4.28 1.52-6.72l-9.97-44.5c-.47-2.43-1.98-4.28-4.18-5.33l-40.2-19.8c-1.28-.6-2.44-.94-3.72-.82z" stroke="#000" stroke-opacity="0" stroke-width="0" fill="#326ce5"/><path d="M1207.88 1079c-1.22.12-2.2.37-3.18.86l-42.45 20.92c-2.32 1.1-3.9 3.05-4.4 5.62l-10.52 47.1c-.5 2.2-.12 4.4 1.1 6.36.12.25.24.37.5.6l29.35 37.7c1.6 2.07 3.8 3.17 6.36 3.17h47.22c2.57 0 4.77-1.1 6.36-3.18l29.36-37.68c1.6-2.08 2.2-4.52 1.6-6.97l-10.53-47.1c-.5-2.57-2.08-4.52-4.4-5.63l-42.45-20.9c-1.35-.63-2.57-1-3.92-.87zm0 3.18c1.35 0 2.45.24 3.67.86l40.37 19.82c2.08 1.1 3.55 2.93 4.16 5.38l9.9 44.53c.5 2.44 0 4.65-1.46 6.6l-27.9 35.72c-1.46 1.95-3.54 3.05-5.98 3.05h-44.78c-2.44 0-4.52-1.1-6-3.06l-27.88-35.73c-.13-.12-.25-.36-.37-.6-1.2-1.84-1.58-3.8-1.1-6l9.92-44.53c.6-2.45 1.95-4.28 4.16-5.38l40.37-19.82c.98-.5 1.83-.74 2.93-.86z" stroke="#000" stroke-opacity="0" stroke-width="0" fill="#fff"/><path d="M1183.7 1122.43l24.55-7.34 24.55 7.34-24.55 7.33zM1183.7 1125.24v26.92l22.87 13.08.12-32.96zM1232.8 1125.24v26.92l-22.87 13.08-.12-32.96z" stroke="#000" stroke-opacity="0" fill="#fff"/><use xlink:href="#H" transform="matrix(1,0,0,1,1117.0833333333335,1210.3333333333337) translate(66.38888888888889 21.333333333333336)"/><path d="M690.77 1071.8l7.55 5.57 8.1 5.48 7.87 4.86 7.7 4.34 7.62 3.86 7.54 3.43 7.53 3.05 7.54 2.7 7.63 2.37 7.75 2.06 7.94 1.77 8.2 1.45 8.55 1.15 9 .83 9.6.48 10.4.1 11.5-.4 13.1-1 15.7-1.87 20.93-3.38 122.97-24.7 17.44-2.06 14.84-1.13 13.23-.45 12.16.1 11.37.56 10.8 1 10.4 1.4 10.08 1.8 9.9 2.17 9.74 2.6 9.7 3.02 7.54 2.7" stroke="#5e5e5e" stroke-width="2" stroke-linejoin="round" fill="none"/><path d="M691.37 1071.02l-1.16 1.57-.84-.64 1.2-1.54z" stroke="#5e5e5e" stroke-width=".05" fill="#5e5e5e"/><path d="M1156.8 1101.4l-14.96-1.12 3.52-8.58z" stroke="#5e5e5e" stroke-width="2" fill="#5e5e5e"/><path d="M694.08 1029.98l12.52-.26 11.96-.75 10.74-1.12 9.8-1.44 9.07-1.72 8.54-2 8.2-2.3 8-2.6 7.98-2.96 8.28-3.48 9.05-4.27 11.15-5.84 52.23-29.63 9.05-4.27 8.27-3.48 8-2.98 8-2.6 8.17-2.28 8.54-2 9.1-1.74 9.8-1.44 10.73-1.13 7-.45" stroke="#5e5e5e" stroke-width="2" stroke-linejoin="round" fill="none"/><path d="M694.12 1030.95l-.83.02-.44-1.94 1.22-.03z" stroke="#5e5e5e" stroke-width=".05" fill="#5e5e5e"/><path d="M963.48 948.77l-14.1 5.1-.3-9.28z" stroke="#5e5e5e" stroke-width="2" fill="#5e5e5e"/><path d="M2248.32 1043.23c-1.16.1-2.1.35-3.02.8l-40.2 19.82c-2.2 1.05-3.72 2.9-4.18 5.34l-9.97 44.6c-.46 2.1-.1 4.17 1.05 6.03.1.23.23.34.46.57l27.8 35.7c1.52 1.97 3.6 3 6.04 3h44.73c2.44 0 4.52-1.03 6.03-3l27.8-35.7c1.52-1.97 2.1-4.28 1.52-6.72l-9.97-44.5c-.45-2.43-1.96-4.28-4.16-5.33l-40.2-19.8c-1.3-.6-2.45-.94-3.72-.82z" stroke="#000" stroke-opacity="0" stroke-width="0" fill="#326ce5"/><path d="M2248.3 1040c-1.22.12-2.2.37-3.18.86l-42.45 20.92c-2.33 1.1-3.9 3.05-4.4 5.62l-10.53 47.1c-.48 2.2-.12 4.4 1.1 6.36.13.25.25.37.5.6l29.36 37.7c1.6 2.07 3.8 3.17 6.36 3.17h47.22c2.57 0 4.77-1.1 6.36-3.18l29.36-37.68c1.6-2.08 2.2-4.52 1.6-6.97l-10.53-47.1c-.5-2.57-2.08-4.52-4.4-5.63l-42.46-20.9c-1.33-.63-2.55-1-3.9-.87zm0 3.18c1.34 0 2.45.24 3.67.86l40.37 19.82c2.08 1.1 3.55 2.93 4.16 5.38l9.9 44.53c.5 2.44 0 4.65-1.46 6.6l-27.9 35.72c-1.46 1.95-3.54 3.05-6 3.05h-44.76c-2.45 0-4.53-1.1-6-3.06l-27.9-35.73c-.1-.12-.23-.36-.35-.6-1.23-1.84-1.6-3.8-1.1-6l9.9-44.53c.62-2.45 1.96-4.28 4.16-5.38l40.36-19.82c.98-.5 1.84-.74 2.94-.86z" stroke="#000" stroke-opacity="0" stroke-width="0" fill="#fff"/><path d="M2224.1 1083.43l24.57-7.34 24.55 7.34-24.55 7.33zM2224.1 1086.24v26.92l22.9 13.08.1-32.96zM2273.22 1086.24v26.92l-22.88 13.08-.1-32.96z" stroke="#000" stroke-opacity="0" fill="#fff"/><g><use xlink:href="#H" transform="matrix(1,0,0,1,2157.5,1171.3333333333337) translate(66.38888888888889 21.333333333333336)"/></g><path d="M2451.65 906.9c-1.16.1-2.08.34-3 .8l-40.22 19.82c-2.2 1.04-3.7 2.9-4.18 5.33l-9.96 44.62c-.48 2.08-.13 4.17 1.03 6.02.12.22.23.34.47.57l27.8 35.7c1.5 1.96 3.6 3 6.03 3h44.73c2.44 0 4.53-1.04 6.03-3l27.8-35.7c1.5-1.97 2.1-4.3 1.5-6.72l-9.95-44.5c-.47-2.43-1.98-4.3-4.18-5.33l-40.2-19.8c-1.28-.6-2.44-.94-3.72-.83z" stroke="#000" stroke-opacity="0" stroke-width="0" fill="#326ce5"/><path d="M2451.63 903.67c-1.22.12-2.2.36-3.18.85L2406 925.44c-2.32 1.1-3.9 3.06-4.4 5.63l-10.52 47.1c-.5 2.2-.12 4.4 1.1 6.36.12.24.24.37.5.6l29.35 37.7c1.6 2.07 3.8 3.17 6.36 3.17h47.2c2.58 0 4.78-1.1 6.37-3.18l29.36-37.68c1.6-2.08 2.2-4.53 1.6-6.97l-10.53-47.1c-.5-2.57-2.08-4.53-4.4-5.63l-42.45-20.92c-1.35-.6-2.57-.98-3.92-.85zm0 3.18c1.35 0 2.45.24 3.67.85l40.37 19.82c2.08 1.1 3.55 2.94 4.16 5.38l9.9 44.53c.5 2.45 0 4.65-1.46 6.6l-27.9 35.73c-1.46 1.96-3.54 3.06-5.98 3.06h-44.8c-2.43 0-4.5-1.1-5.98-3.06l-27.9-35.72c-.12-.12-.24-.37-.36-.6-1.22-1.85-1.6-3.8-1.1-6l9.9-44.54c.62-2.44 1.97-4.28 4.17-5.38l40.37-19.82c.98-.5 1.83-.73 2.93-.85z" stroke="#000" stroke-opacity="0" stroke-width="0" fill="#fff"/><path d="M2427.45 947.1l24.55-7.34 24.55 7.34-24.55 7.34zM2427.45 949.9v26.93l22.87 13.08.12-32.95zM2476.55 949.9v26.93l-22.87 13.08-.12-32.95z" stroke="#000" stroke-opacity="0" fill="#fff"/><g><use xlink:href="#H" transform="matrix(1,0,0,1,2360.8333333333335,1035.0000000000005) translate(66.38888888888889 21.333333333333336)"/></g><path d="M2791.54 1042.77l-20.13-4.96-21.6-6.3-24.32-8.23-110.44-42.3-15.5-4.52-14.14-3.5-13.6-2.74-13.54-2.15-13.87-1.62-14.52-1.07-1.44-.05" stroke="#5e5e5e" stroke-width="2" stroke-linejoin="round" fill="none"/><path d="M2792.73 1042.06l-.43 1.9-1.02-.25.47-1.88z" stroke="#5e5e5e" stroke-width=".05" fill="#5e5e5e"/><path d="M2513.18 964.92l14.38-4.27-.24 9.27z" stroke="#5e5e5e" stroke-width="2" fill="#5e5e5e"/><path d="M2784.92 1072.52l-12.9.27-14.33.9-14.93 1.57-15.75 2.33-16.92 3.23-18.65 4.38-21.44 6-26.8 8.76-48.7 18.34-74.84 28.87-21.53 7.03-16.16 4.53-13.37 3.14-11.62 2.22-10.4 1.53-9.5 1-8.85.56-8.32.17-7.9-.16-7.6-.47-7.35-.77-7.16-1.06-7.04-1.34-6.95-1.63-6.9-1.93-6.9-2.24-6.93-2.58-7-2.95-7.13-3.35-7.3-3.8-7.48-4.34-6.6-4.18" stroke="#5e5e5e" stroke-width="2" stroke-linejoin="round" fill="none"/><path d="M2785.7 1073.48l-.78.02-.04-1.95 1.27-.03z" stroke="#5e5e5e" stroke-width=".05" fill="#5e5e5e"/><path d="M2307.24 1127.7l14.3 4.5-5.37 7.56z" stroke="#5e5e5e" stroke-width="2" fill="#5e5e5e"/><path d="M1753.5-18.05V94.32a6 6 0 0 1-6 6h-745.66" stroke="#000" stroke-width="3" fill="none"/><path d="M1753.5-33.8l4.63 14.25h-9.28zM986.07 100.32l14.27-4.63v9.26z" stroke="#000" stroke-width="3"/><path d="M1753.5-37.17V94.15a6 6 0 0 0 6 6h739.78" stroke="#000" stroke-width="3" fill="none"/><path d="M1754.96-37.13h-2.94v-1.54h2.94z" stroke="#000" stroke-width=".05"/><path d="M2515.04 100.15l-14.26 4.64V95.5z" stroke="#000" stroke-width="3"/><path d="M1007.52 153.56h739.65a6 6 0 0 1 6 6V340.9" stroke="#000" stroke-width="3" fill="none"/><path d="M991.75 153.55l14.27-4.63v9.27zM1753.17 356.65l-4.64-14.27h9.27z" stroke="#000" stroke-width="3"/><path d="M2493.9 153.57h-734.73a6 6 0 0 0-6 6v181.3" stroke="#000" stroke-width="3" fill="none"/><path d="M2509.68 153.57l-14.26 4.64v-9.26zM1753.17 356.65l-4.64-14.27h9.27z" stroke="#000" stroke-width="3"/><path d="M541.55 1447.98l1207.62.02a6 6 0 0 0 6-6V655.3" stroke="#000" stroke-width="3" fill="none"/><path d="M525.8 1447.98l14.25-4.63v9.27zM1755.17 639.52l4.63 14.27h-9.27z" stroke="#000" stroke-width="3"/><path d="M2934.94 1448H1761.17a6 6 0 0 1-6-6V655.45" stroke="#000" stroke-width="3" fill="none"/><path d="M2950.7 1448l-14.26 4.63v-9.27zM1755.04 639.86l4.75 14.22-9.28.08z" stroke="#000" stroke-width="3"/><path d="M1539 835a6 6 0 0 1 6-6h228a6 6 0 0 1 6 6v48a6 6 0 0 1-6 6h-228a6 6 0 0 1-6-6z" stroke="#000" stroke-opacity="0" stroke-width="3" fill="#fff" fill-opacity="0"/><g><use xlink:href="#I" transform="matrix(1,0,0,1,1544,834) translate(33.74074074074075 30.708333333333332)"/><use xlink:href="#J" transform="matrix(1,0,0,1,1544,834) translate(101.5925925925926 30.708333333333332)"/></g><defs><path fill="#282c33" d="M199 0l-22-63H83L61 0H9l90-248h61L250 0h-51zm-33-102l-36-108c-10 38-24 72-36 108h72" id="K"/><path fill="#282c33" d="M275 0h-61l-44-196L126 0H64L0-248h53L97-49l45-199h58l43 199 44-199h52" id="L"/><path fill="#282c33" d="M169-182c-1-43-94-46-97-3 18 66 151 10 154 114 3 95-165 93-204 36-6-8-10-19-12-30l50-8c3 46 112 56 116 5-17-69-150-10-154-114-4-87 153-88 188-35 5 8 8 18 10 28" id="M"/><g id="a"><use transform="matrix(0.07407407407407408,0,0,0.07407407407407408,0,0)" xlink:href="#K"/><use transform="matrix(0.07407407407407408,0,0,0.07407407407407408,17.703703703703706,0)" xlink:href="#L"/><use transform="matrix(0.07407407407407408,0,0,0.07407407407407408,42.814814814814824,0)" xlink:href="#M"/></g><path fill="#282c33" d="M67-125c0 53 21 87 73 88 37 1 54-22 65-47l45 17C233-25 199 4 140 4 58 4 20-42 15-125 8-235 124-281 211-232c18 10 29 29 36 50l-46 12c-8-25-30-41-62-41-52 0-71 34-72 86" id="N"/><path fill="#282c33" d="M25 0v-261h50V0H25" id="O"/><path fill="#282c33" d="M110-194c64 0 96 36 96 99 0 64-35 99-97 99-61 0-95-36-95-99 0-62 34-99 96-99zm-1 164c35 0 45-28 45-65 0-40-10-65-43-65-34 0-45 26-45 65 0 36 10 65 43 65" id="P"/><path fill="#282c33" d="M85 4C-2 5 27-109 22-190h50c7 57-23 150 33 157 60-5 35-97 40-157h50l1 190h-47c-2-12 1-28-3-38-12 25-28 42-61 42" id="Q"/><path fill="#282c33" d="M88-194c31-1 46 15 58 34l-1-101h50l1 261h-48c-2-10 0-23-3-31C134-8 116 4 84 4 32 4 16-41 15-95c0-56 19-97 73-99zm17 164c33 0 40-30 41-66 1-37-9-64-41-64s-38 30-39 65c0 43 13 65 39 65" id="R"/><g id="b"><use transform="matrix(0.07407407407407408,0,0,0.07407407407407408,0,0)" xlink:href="#N"/><use transform="matrix(0.07407407407407408,0,0,0.07407407407407408,19.185185185185187,0)" xlink:href="#O"/><use transform="matrix(0.07407407407407408,0,0,0.07407407407407408,26.592592592592595,0)" xlink:href="#P"/><use transform="matrix(0.07407407407407408,0,0,0.07407407407407408,42.814814814814824,0)" xlink:href="#Q"/><use transform="matrix(0.07407407407407408,0,0,0.07407407407407408,59.03703703703705,0)" xlink:href="#R"/></g><path fill="#282c33" d="M147 0H94L2-248h55l64 206c17-72 42-137 63-206h54" id="S"/><path fill="#282c33" d="M25-224v-37h50v37H25zM25 0v-190h50V0H25" id="T"/><path fill="#282c33" d="M135-150c-39-12-60 13-60 57V0H25l-1-190h47c2 13-1 29 3 40 6-28 27-53 61-41v41" id="U"/><path fill="#282c33" d="M115-3C79 11 28 4 28-45v-112H4v-33h27l15-45h31v45h36v33H77v99c-1 23 16 31 38 25v30" id="V"/><path fill="#282c33" d="M133-34C117-15 103 5 69 4 32 3 11-16 11-54c-1-60 55-63 116-61 1-26-3-47-28-47-18 1-26 9-28 27l-52-2c7-38 36-58 82-57s74 22 75 68l1 82c-1 14 12 18 25 15v27c-30 8-71 5-69-32zm-48 3c29 0 43-24 42-57-32 0-66-3-65 30 0 17 8 27 23 27" id="W"/><g id="c"><use transform="matrix(0.07407407407407408,0,0,0.07407407407407408,0,0)" xlink:href="#S"/><use transform="matrix(0.07407407407407408,0,0,0.07407407407407408,17.25925925925926,0)" xlink:href="#T"/><use transform="matrix(0.07407407407407408,0,0,0.07407407407407408,24.66666666666667,0)" xlink:href="#U"/><use transform="matrix(0.07407407407407408,0,0,0.07407407407407408,35.03703703703704,0)" xlink:href="#V"/><use transform="matrix(0.07407407407407408,0,0,0.07407407407407408,43.851851851851855,0)" xlink:href="#Q"/><use transform="matrix(0.07407407407407408,0,0,0.07407407407407408,60.074074074074076,0)" xlink:href="#W"/><use transform="matrix(0.07407407407407408,0,0,0.07407407407407408,74.88888888888889,0)" xlink:href="#O"/></g><path fill="#282c33" d="M24-248c93 1 206-16 204 79-1 75-69 88-152 82V0H24v-248zm52 121c47 0 100 7 100-41 0-47-54-39-100-39v80" id="X"/><path fill="#282c33" d="M128 0H69L1-190h53L99-40l48-150h52" id="Y"/><path fill="#282c33" d="M185-48c-13 30-37 53-82 52C43 2 14-33 14-96s30-98 90-98c62 0 83 45 84 108H66c0 31 8 55 39 56 18 0 30-7 34-22zm-45-69c5-46-57-63-70-21-2 6-4 13-4 21h74" id="Z"/><g id="d"><use transform="matrix(0.07407407407407408,0,0,0.07407407407407408,0,0)" xlink:href="#X"/><use transform="matrix(0.07407407407407408,0,0,0.07407407407407408,17.77777777777778,0)" xlink:href="#U"/><use transform="matrix(0.07407407407407408,0,0,0.07407407407407408,28.148148148148152,0)" xlink:href="#T"/><use transform="matrix(0.07407407407407408,0,0,0.07407407407407408,35.55555555555556,0)" xlink:href="#Y"/><use transform="matrix(0.07407407407407408,0,0,0.07407407407407408,50.370370370370374,0)" xlink:href="#W"/><use transform="matrix(0.07407407407407408,0,0,0.07407407407407408,65.18518518518519,0)" xlink:href="#V"/><use transform="matrix(0.07407407407407408,0,0,0.07407407407407408,74,0)" xlink:href="#Z"/></g><g id="e"><use transform="matrix(0.07407407407407408,0,0,0.07407407407407408,0,0)" xlink:href="#N"/><use transform="matrix(0.07407407407407408,0,0,0.07407407407407408,19.185185185185187,0)" xlink:href="#O"/><use transform="matrix(0.07407407407407408,0,0,0.07407407407407408,26.592592592592595,0)" xlink:href="#P"/><use transform="matrix(0.07407407407407408,0,0,0.07407407407407408,42.814814814814824,0)" xlink:href="#Q"/><use transform="matrix(0.07407407407407408,0,0,0.07407407407407408,59.03703703703705,0)" xlink:href="#R"/></g><path fill="#282c33" d="M23 0v-37h61v-169l-59 37v-38l62-41h46v211h57V0H23" id="aa"/><path fill="#282c33" d="M99-251c69 0 84 53 88 123 5 99-61 162-144 118-15-8-21-25-26-45l46-6c4 31 50 33 63 7 7-15 12-36 12-60-9 18-29 28-54 28-48 0-72-32-72-82 0-55 31-83 87-83zm-1 128c24 0 37-16 37-39 0-27-10-51-37-51-25 0-35 19-35 45 0 25 10 45 35 45" id="ab"/><path fill="#282c33" d="M182-182c0 78-84 86-111 141h115V0H12c-6-101 99-100 120-180 1-22-12-31-33-32-23 0-32 14-35 34l-49-3c5-45 32-70 84-70 51 0 83 22 83 69" id="ac"/><path fill="#282c33" d="M24 0v-54h51V0H24" id="ad"/><path fill="#282c33" d="M115-159c48 0 72 30 72 78 0 54-30 85-83 85-64 0-91-50-91-122 0-98 58-163 141-120 15 8 21 24 27 44l-47 6c-5-31-48-31-61-4-7 14-11 33-11 60 9-17 28-27 53-27zM102-35c24 0 36-20 36-45s-11-43-37-43c-23 0-36 14-36 38 0 27 11 50 37 50" id="ae"/><path fill="#282c33" d="M138-131c27 9 52 24 51 61 0 53-36 74-89 74S11-19 11-69c0-35 22-54 51-61-78-25-46-121 38-121 51 0 83 19 83 66 0 30-18 49-45 54zm-38-16c24 0 32-13 32-36 1-23-11-34-32-34-22 0-33 12-32 34 0 22 9 36 32 36zm1 116c27 0 37-17 37-43 0-25-13-39-39-39-24 0-37 15-37 40 0 27 11 42 39 42" id="af"/><path fill="#282c33" d="M101-251c68 0 84 54 84 127C185-50 166 4 99 4S15-52 14-124c-1-75 17-127 87-127zm-1 216c37-5 36-46 36-89s4-89-36-89c-39 0-36 45-36 89 0 43-3 85 36 89" id="ag"/><g id="f"><use transform="matrix(0.07407407407407408,0,0,0.07407407407407408,0,0)" xlink:href="#aa"/><use transform="matrix(0.07407407407407408,0,0,0.07407407407407408,14.814814814814817,0)" xlink:href="#ab"/><use transform="matrix(0.07407407407407408,0,0,0.07407407407407408,29.629629629629633,0)" xlink:href="#ac"/><use transform="matrix(0.07407407407407408,0,0,0.07407407407407408,44.44444444444445,0)" xlink:href="#ad"/><use transform="matrix(0.07407407407407408,0,0,0.07407407407407408,51.85185185185186,0)" xlink:href="#aa"/><use transform="matrix(0.07407407407407408,0,0,0.07407407407407408,66.66666666666669,0)" xlink:href="#ae"/><use transform="matrix(0.07407407407407408,0,0,0.07407407407407408,81.4814814814815,0)" xlink:href="#af"/><use transform="matrix(0.07407407407407408,0,0,0.07407407407407408,96.2962962962963,0)" xlink:href="#ad"/><use transform="matrix(0.07407407407407408,0,0,0.07407407407407408,103.70370370370372,0)" xlink:href="#ag"/><use transform="matrix(0.07407407407407408,0,0,0.07407407407407408,118.51851851851853,0)" xlink:href="#ad"/><use transform="matrix(0.07407407407407408,0,0,0.07407407407407408,125.92592592592594,0)" xlink:href="#ag"/></g><path fill="#282c33" d="M4 7l51-268h42L46 7H4" id="ah"/><use transform="matrix(0.07407407407407408,0,0,0.07407407407407408,0,0)" xlink:href="#ah" id="g"/><g id="h"><use transform="matrix(0.07407407407407408,0,0,0.07407407407407408,0,0)" xlink:href="#aa"/><use transform="matrix(0.07407407407407408,0,0,0.07407407407407408,14.814814814814817,0)" xlink:href="#ae"/></g><path fill="#282c33" d="M135-194c52 0 70 43 70 98 0 56-19 99-73 100-30 1-46-15-58-35L72 0H24l1-261h50v104c11-23 29-37 60-37zM114-30c31 0 40-27 40-66 0-37-7-63-39-63s-41 28-41 65c0 36 8 64 40 64" id="ai"/><path fill="#282c33" d="M123 10C108 53 80 86 19 72V37c35 8 53-11 59-39L3-190h52l48 148c12-52 28-100 44-148h51" id="aj"/><g id="i"><use transform="matrix(0.07407407407407408,0,0,0.07407407407407408,0,0)" xlink:href="#K"/><use transform="matrix(0.07407407407407408,0,0,0.07407407407407408,18.222222222222225,0)" xlink:href="#Y"/><use transform="matrix(0.07407407407407408,0,0,0.07407407407407408,33.03703703703704,0)" xlink:href="#W"/><use transform="matrix(0.07407407407407408,0,0,0.07407407407407408,47.851851851851855,0)" xlink:href="#T"/><use transform="matrix(0.07407407407407408,0,0,0.07407407407407408,55.25925925925927,0)" xlink:href="#O"/><use transform="matrix(0.07407407407407408,0,0,0.07407407407407408,62.66666666666667,0)" xlink:href="#W"/><use transform="matrix(0.07407407407407408,0,0,0.07407407407407408,77.4814814814815,0)" xlink:href="#ai"/><use transform="matrix(0.07407407407407408,0,0,0.07407407407407408,93.70370370370371,0)" xlink:href="#T"/><use transform="matrix(0.07407407407407408,0,0,0.07407407407407408,101.11111111111113,0)" xlink:href="#O"/><use transform="matrix(0.07407407407407408,0,0,0.07407407407407408,108.51851851851853,0)" xlink:href="#T"/><use transform="matrix(0.07407407407407408,0,0,0.07407407407407408,115.92592592592594,0)" xlink:href="#V"/><use transform="matrix(0.07407407407407408,0,0,0.07407407407407408,124.74074074074076,0)" xlink:href="#aj"/></g><path fill="#282c33" d="M210 0H11v-37l134-170H24v-41h178v36L68-41h142V0" id="ak"/><path fill="#282c33" d="M135-194c87-1 58 113 63 194h-50c-7-57 23-157-34-157-59 0-34 97-39 157H25l-1-190h47c2 12-1 28 3 38 12-26 28-41 61-42" id="al"/><g id="j"><use transform="matrix(0.07407407407407408,0,0,0.07407407407407408,0,0)" xlink:href="#ak"/><use transform="matrix(0.07407407407407408,0,0,0.07407407407407408,16.222222222222225,0)" xlink:href="#P"/><use transform="matrix(0.07407407407407408,0,0,0.07407407407407408,32.44444444444445,0)" xlink:href="#al"/><use transform="matrix(0.07407407407407408,0,0,0.07407407407407408,48.66666666666667,0)" xlink:href="#Z"/></g><use transform="matrix(0.07407407407407408,0,0,0.07407407407407408,0,0)" xlink:href="#K" id="k"/><path fill="#282c33" d="M190-63c-7 42-38 67-86 67-59 0-84-38-90-98-12-110 154-137 174-36l-49 2c-2-19-15-32-35-32-30 0-35 28-38 64-6 74 65 87 74 30" id="am"/><g id="l"><use transform="matrix(0.07407407407407408,0,0,0.07407407407407408,0,0)" xlink:href="#X"/><use transform="matrix(0.07407407407407408,0,0,0.07407407407407408,17.77777777777778,0)" xlink:href="#Q"/><use transform="matrix(0.07407407407407408,0,0,0.07407407407407408,34,0)" xlink:href="#ai"/><use transform="matrix(0.07407407407407408,0,0,0.07407407407407408,50.22222222222223,0)" xlink:href="#O"/><use transform="matrix(0.07407407407407408,0,0,0.07407407407407408,57.62962962962964,0)" xlink:href="#T"/><use transform="matrix(0.07407407407407408,0,0,0.07407407407407408,65.03703703703704,0)" xlink:href="#am"/></g><g id="m"><use transform="matrix(0.07407407407407408,0,0,0.07407407407407408,0,0)" xlink:href="#M"/><use transform="matrix(0.07407407407407408,0,0,0.07407407407407408,17.77777777777778,0)" xlink:href="#Q"/><use transform="matrix(0.07407407407407408,0,0,0.07407407407407408,34,0)" xlink:href="#ai"/><use transform="matrix(0.07407407407407408,0,0,0.07407407407407408,50.22222222222223,0)" xlink:href="#al"/><use transform="matrix(0.07407407407407408,0,0,0.07407407407407408,66.44444444444446,0)" xlink:href="#Z"/><use transform="matrix(0.07407407407407408,0,0,0.07407407407407408,81.25925925925927,0)" xlink:href="#V"/></g><use transform="matrix(0.07407407407407408,0,0,0.07407407407407408,0,0)" xlink:href="#aa" id="n"/><g id="o"><use transform="matrix(0.07407407407407408,0,0,0.07407407407407408,0,0)" xlink:href="#aa"/><use transform="matrix(0.07407407407407408,0,0,0.07407407407407408,14.814814814814817,0)" xlink:href="#ab"/><use transform="matrix(0.07407407407407408,0,0,0.07407407407407408,29.629629629629633,0)" xlink:href="#ac"/><use transform="matrix(0.07407407407407408,0,0,0.07407407407407408,44.44444444444445,0)" xlink:href="#ad"/><use transform="matrix(0.07407407407407408,0,0,0.07407407407407408,51.85185185185186,0)" xlink:href="#aa"/><use transform="matrix(0.07407407407407408,0,0,0.07407407407407408,66.66666666666669,0)" xlink:href="#ae"/><use transform="matrix(0.07407407407407408,0,0,0.07407407407407408,81.4814814814815,0)" xlink:href="#af"/><use transform="matrix(0.07407407407407408,0,0,0.07407407407407408,96.2962962962963,0)" xlink:href="#ad"/><use transform="matrix(0.07407407407407408,0,0,0.07407407407407408,103.70370370370372,0)" xlink:href="#ac"/><use transform="matrix(0.07407407407407408,0,0,0.07407407407407408,118.51851851851853,0)" xlink:href="#ad"/><use transform="matrix(0.07407407407407408,0,0,0.07407407407407408,125.92592592592594,0)" xlink:href="#ag"/></g><path fill="#282c33" d="M165-50V0h-47v-50H5v-38l105-160h55v161h33v37h-33zm-47-37l2-116L46-87h72" id="an"/><g id="p"><use transform="matrix(0.07407407407407408,0,0,0.07407407407407408,0,0)" xlink:href="#ac"/><use transform="matrix(0.07407407407407408,0,0,0.07407407407407408,14.814814814814817,0)" xlink:href="#an"/></g><g id="q"><use transform="matrix(0.07407407407407408,0,0,0.07407407407407408,0,0)" xlink:href="#X"/><use transform="matrix(0.07407407407407408,0,0,0.07407407407407408,17.77777777777778,0)" xlink:href="#U"/><use transform="matrix(0.07407407407407408,0,0,0.07407407407407408,28.148148148148152,0)" xlink:href="#T"/><use transform="matrix(0.07407407407407408,0,0,0.07407407407407408,35.55555555555556,0)" xlink:href="#Y"/><use transform="matrix(0.07407407407407408,0,0,0.07407407407407408,50.370370370370374,0)" xlink:href="#W"/><use transform="matrix(0.07407407407407408,0,0,0.07407407407407408,65.18518518518519,0)" xlink:href="#V"/><use transform="matrix(0.07407407407407408,0,0,0.07407407407407408,74,0)" xlink:href="#Z"/></g><g id="r"><use transform="matrix(0.07407407407407408,0,0,0.07407407407407408,0,0)" xlink:href="#aa"/><use transform="matrix(0.07407407407407408,0,0,0.07407407407407408,14.814814814814817,0)" xlink:href="#ab"/><use transform="matrix(0.07407407407407408,0,0,0.07407407407407408,29.629629629629633,0)" xlink:href="#ac"/><use transform="matrix(0.07407407407407408,0,0,0.07407407407407408,44.44444444444445,0)" xlink:href="#ad"/><use transform="matrix(0.07407407407407408,0,0,0.07407407407407408,51.85185185185186,0)" xlink:href="#aa"/><use transform="matrix(0.07407407407407408,0,0,0.07407407407407408,66.66666666666669,0)" xlink:href="#ae"/><use transform="matrix(0.07407407407407408,0,0,0.07407407407407408,81.4814814814815,0)" xlink:href="#af"/><use transform="matrix(0.07407407407407408,0,0,0.07407407407407408,96.2962962962963,0)" xlink:href="#ad"/><use transform="matrix(0.07407407407407408,0,0,0.07407407407407408,103.70370370370372,0)" xlink:href="#aa"/><use transform="matrix(0.07407407407407408,0,0,0.07407407407407408,118.51851851851853,0)" xlink:href="#ad"/><use transform="matrix(0.07407407407407408,0,0,0.07407407407407408,125.92592592592594,0)" xlink:href="#ag"/></g><path fill="#282c33" d="M182-130c37 4 62 22 62 59C244 23 116-4 24 0v-248c84 5 203-23 205 63 0 31-19 50-47 55zM76-148c40-3 101 13 101-30 0-44-60-28-101-31v61zm0 110c48-3 116 14 116-37 0-48-69-32-116-35v72" id="ao"/><use transform="matrix(0.07407407407407408,0,0,0.07407407407407408,0,0)" xlink:href="#ao" id="s"/><use transform="matrix(0.07407407407407408,0,0,0.07407407407407408,0,0)" xlink:href="#ac" id="t"/><g id="u"><use transform="matrix(0.07407407407407408,0,0,0.07407407407407408,0,0)" xlink:href="#aa"/><use transform="matrix(0.07407407407407408,0,0,0.07407407407407408,14.814814814814817,0)" xlink:href="#ab"/><use transform="matrix(0.07407407407407408,0,0,0.07407407407407408,29.629629629629633,0)" xlink:href="#ac"/><use transform="matrix(0.07407407407407408,0,0,0.07407407407407408,44.44444444444445,0)" xlink:href="#ad"/><use transform="matrix(0.07407407407407408,0,0,0.07407407407407408,51.85185185185186,0)" xlink:href="#aa"/><use transform="matrix(0.07407407407407408,0,0,0.07407407407407408,66.66666666666669,0)" xlink:href="#ae"/><use transform="matrix(0.07407407407407408,0,0,0.07407407407407408,81.4814814814815,0)" xlink:href="#af"/><use transform="matrix(0.07407407407407408,0,0,0.07407407407407408,96.2962962962963,0)" xlink:href="#ad"/><use transform="matrix(0.07407407407407408,0,0,0.07407407407407408,103.70370370370372,0)" xlink:href="#an"/><use transform="matrix(0.07407407407407408,0,0,0.07407407407407408,118.51851851851853,0)" xlink:href="#ad"/><use transform="matrix(0.07407407407407408,0,0,0.07407407407407408,125.92592592592594,0)" xlink:href="#ag"/></g><path fill="#282c33" d="M128-127c34 4 56 21 59 58 7 91-148 94-172 28-4-9-6-17-7-26l51-5c1 24 16 35 40 36 23 0 39-12 38-36-1-31-31-36-65-34v-40c32 2 59-3 59-33 0-20-13-33-34-33s-33 13-35 32l-50-3c6-44 37-68 86-68 50 0 83 20 83 66 0 35-22 52-53 58" id="ap"/><g id="v"><use transform="matrix(0.07407407407407408,0,0,0.07407407407407408,0,0)" xlink:href="#aa"/><use transform="matrix(0.07407407407407408,0,0,0.07407407407407408,14.814814814814817,0)" xlink:href="#ab"/><use transform="matrix(0.07407407407407408,0,0,0.07407407407407408,29.629629629629633,0)" xlink:href="#ac"/><use transform="matrix(0.07407407407407408,0,0,0.07407407407407408,44.44444444444445,0)" xlink:href="#ad"/><use transform="matrix(0.07407407407407408,0,0,0.07407407407407408,51.85185185185186,0)" xlink:href="#aa"/><use transform="matrix(0.07407407407407408,0,0,0.07407407407407408,66.66666666666669,0)" xlink:href="#ae"/><use transform="matrix(0.07407407407407408,0,0,0.07407407407407408,81.4814814814815,0)" xlink:href="#af"/><use transform="matrix(0.07407407407407408,0,0,0.07407407407407408,96.2962962962963,0)" xlink:href="#ad"/><use transform="matrix(0.07407407407407408,0,0,0.07407407407407408,103.70370370370372,0)" xlink:href="#ap"/><use transform="matrix(0.07407407407407408,0,0,0.07407407407407408,118.51851851851853,0)" xlink:href="#ad"/><use transform="matrix(0.07407407407407408,0,0,0.07407407407407408,125.92592592592594,0)" xlink:href="#ag"/></g><path fill="#282c33" d="M220-157c-53 9-28 100-34 157h-49v-107c1-27-5-49-29-50C55-147 81-57 75 0H25l-1-190h47c2 12-1 28 3 38 10-53 101-56 108 0 13-22 24-43 59-42 82 1 51 116 57 194h-49v-107c-1-25-5-48-29-50" id="aq"/><path fill="#282c33" d="M137-138c1-29-70-34-71-4 15 46 118 7 119 86 1 83-164 76-172 9l43-7c4 19 20 25 44 25 33 8 57-30 24-41C81-84 22-81 20-136c-2-80 154-74 161-7" id="ar"/><path fill="#282c33" d="M135-194c53 0 70 44 70 98 0 56-19 98-73 100-31 1-45-17-59-34 3 33 2 69 2 105H25l-1-265h48c2 10 0 23 3 31 11-24 29-35 60-35zM114-30c33 0 39-31 40-66 0-38-9-64-40-64-56 0-55 130 0 130" id="as"/><g id="w"><use transform="matrix(0.07407407407407407,0,0,0.07407407407407407,0,0)" xlink:href="#al"/><use transform="matrix(0.07407407407407407,0,0,0.07407407407407407,16.22222222222222,0)" xlink:href="#W"/><use transform="matrix(0.07407407407407407,0,0,0.07407407407407407,31.037037037037035,0)" xlink:href="#aq"/><use transform="matrix(0.07407407407407407,0,0,0.07407407407407407,54.740740740740726,0)" xlink:href="#Z"/><use transform="matrix(0.07407407407407407,0,0,0.07407407407407407,69.55555555555554,0)" xlink:href="#ar"/><use transform="matrix(0.07407407407407407,0,0,0.07407407407407407,84.37037037037035,0)" xlink:href="#as"/><use transform="matrix(0.07407407407407407,0,0,0.07407407407407407,100.59259259259258,0)" xlink:href="#W"/><use transform="matrix(0.07407407407407407,0,0,0.07407407407407407,115.40740740740739,0)" xlink:href="#am"/><use transform="matrix(0.07407407407407407,0,0,0.07407407407407407,130.2222222222222,0)" xlink:href="#Z"/></g><path fill="#282c33" d="M175 0L67-191c6 58 2 128 3 191H24v-248h59L193-55c-6-58-2-129-3-193h46V0h-61" id="at"/><path fill="#282c33" d="M136-208V0H84v-208H4v-40h212v40h-80" id="au"/><g id="x"><use transform="matrix(0.07407407407407408,0,0,0.07407407407407408,0,0)" xlink:href="#at"/><use transform="matrix(0.07407407407407408,0,0,0.07407407407407408,19.185185185185187,0)" xlink:href="#K"/><use transform="matrix(0.07407407407407408,0,0,0.07407407407407408,36.370370370370374,0)" xlink:href="#au"/></g><path fill="#282c33" d="M195-6C206 82 75 100 31 46c-4-6-6-13-8-21l49-6c3 16 16 24 34 25 40 0 42-37 40-79-11 22-30 35-61 35-53 0-70-43-70-97 0-56 18-96 73-97 30 0 46 14 59 34l2-30h47zm-90-29c32 0 41-27 41-63 0-35-9-62-40-62-32 0-39 29-40 63 0 36 9 62 39 62" id="av"/><path fill="#282c33" d="M231 0h-52l-39-155L100 0H48L-1-190h46L77-45c9-52 24-97 36-145h53l37 145 32-145h46" id="aw"/><g id="y"><use transform="matrix(0.07407407407407408,0,0,0.07407407407407408,0,0)" xlink:href="#av"/><use transform="matrix(0.07407407407407408,0,0,0.07407407407407408,16.222222222222225,0)" xlink:href="#W"/><use transform="matrix(0.07407407407407408,0,0,0.07407407407407408,31.03703703703704,0)" xlink:href="#V"/><use transform="matrix(0.07407407407407408,0,0,0.07407407407407408,39.85185185185187,0)" xlink:href="#Z"/><use transform="matrix(0.07407407407407408,0,0,0.07407407407407408,54.666666666666686,0)" xlink:href="#aw"/><use transform="matrix(0.07407407407407408,0,0,0.07407407407407408,75.40740740740742,0)" xlink:href="#W"/><use transform="matrix(0.07407407407407408,0,0,0.07407407407407408,90.22222222222223,0)" xlink:href="#aj"/></g><path fill="#282c33" d="M24 0v-248h52V0H24" id="ax"/><g id="z"><use transform="matrix(0.07407407407407408,0,0,0.07407407407407408,0,0)" xlink:href="#ax"/><use transform="matrix(0.07407407407407408,0,0,0.07407407407407408,7.407407407407408,0)" xlink:href="#al"/><use transform="matrix(0.07407407407407408,0,0,0.07407407407407408,23.629629629629633,0)" xlink:href="#V"/><use transform="matrix(0.07407407407407408,0,0,0.07407407407407408,32.44444444444445,0)" xlink:href="#Z"/><use transform="matrix(0.07407407407407408,0,0,0.07407407407407408,47.25925925925927,0)" xlink:href="#U"/><use transform="matrix(0.07407407407407408,0,0,0.07407407407407408,57.62962962962964,0)" xlink:href="#al"/><use transform="matrix(0.07407407407407408,0,0,0.07407407407407408,73.85185185185186,0)" xlink:href="#Z"/><use transform="matrix(0.07407407407407408,0,0,0.07407407407407408,88.66666666666667,0)" xlink:href="#V"/></g><g id="A"><use transform="matrix(0.07407407407407408,0,0,0.07407407407407408,0,0)" xlink:href="#at"/><use transform="matrix(0.07407407407407408,0,0,0.07407407407407408,19.185185185185187,0)" xlink:href="#P"/><use transform="matrix(0.07407407407407408,0,0,0.07407407407407408,35.40740740740741,0)" xlink:href="#R"/><use transform="matrix(0.07407407407407408,0,0,0.07407407407407408,51.62962962962963,0)" xlink:href="#Z"/></g><path fill="#282c33" d="M230 0l2-204L168 0h-37L68-204 70 0H24v-248h70l56 185 57-185h69V0h-46" id="ay"/><g id="B"><use transform="matrix(0.07407407407407408,0,0,0.07407407407407408,0,0)" xlink:href="#ay"/><use transform="matrix(0.07407407407407408,0,0,0.07407407407407408,22.148148148148152,0)" xlink:href="#W"/><use transform="matrix(0.07407407407407408,0,0,0.07407407407407408,36.96296296296297,0)" xlink:href="#ar"/><use transform="matrix(0.07407407407407408,0,0,0.07407407407407408,51.777777777777786,0)" xlink:href="#V"/><use transform="matrix(0.07407407407407408,0,0,0.07407407407407408,60.5925925925926,0)" xlink:href="#Z"/><use transform="matrix(0.07407407407407408,0,0,0.07407407407407408,75.40740740740742,0)" xlink:href="#U"/></g><path fill="#282c33" d="M240-174c0 40-23 61-54 70L253 0h-59l-57-94H76V0H24v-248c93 4 217-23 216 74zM76-134c48-2 112 12 112-38 0-48-66-32-112-35v73" id="az"/><g id="C"><use transform="matrix(0.07407407407407407,0,0,0.07407407407407407,0,0)" xlink:href="#az"/><use transform="matrix(0.07407407407407407,0,0,0.07407407407407407,19.185185185185183,0)" xlink:href="#Z"/><use transform="matrix(0.07407407407407407,0,0,0.07407407407407407,34,0)" xlink:href="#as"/><use transform="matrix(0.07407407407407407,0,0,0.07407407407407407,50.22222222222222,0)" xlink:href="#O"/><use transform="matrix(0.07407407407407407,0,0,0.07407407407407407,57.629629629629626,0)" xlink:href="#T"/><use transform="matrix(0.07407407407407407,0,0,0.07407407407407407,65.03703703703704,0)" xlink:href="#am"/><use transform="matrix(0.07407407407407407,0,0,0.07407407407407407,79.85185185185185,0)" xlink:href="#W"/><use transform="matrix(0.07407407407407407,0,0,0.07407407407407407,94.66666666666666,0)" xlink:href="#M"/><use transform="matrix(0.07407407407407407,0,0,0.07407407407407407,112.44444444444441,0)" xlink:href="#Z"/><use transform="matrix(0.07407407407407407,0,0,0.07407407407407407,127.25925925925924,0)" xlink:href="#V"/></g><linearGradient gradientUnits="userSpaceOnUse" id="D" x1="1662.17" y1="537.5" x2="1844.17" y2="361.5"><stop offset="0%" stop-color="#4d27a8"/><stop offset="100%" stop-color="#a166ff"/></linearGradient><path fill="#282c33" d="M24 0v-248h195v40H76v63h132v40H76v65h150V0H24" id="aA"/><g id="E"><use transform="matrix(0.07407407407407407,0,0,0.07407407407407407,0,0)" xlink:href="#aA"/><use transform="matrix(0.07407407407407407,0,0,0.07407407407407407,17.77777777777778,0)" xlink:href="#O"/><use transform="matrix(0.07407407407407407,0,0,0.07407407407407407,25.185185185185183,0)" xlink:href="#W"/><use transform="matrix(0.07407407407407407,0,0,0.07407407407407407,40,0)" xlink:href="#ar"/><use transform="matrix(0.07407407407407407,0,0,0.07407407407407407,54.81481481481481,0)" xlink:href="#V"/><use transform="matrix(0.07407407407407407,0,0,0.07407407407407407,63.629629629629626,0)" xlink:href="#T"/><use transform="matrix(0.07407407407407407,0,0,0.07407407407407407,71.03703703703704,0)" xlink:href="#am"/></g><path fill="#282c33" d="M24 0v-248h52v208h133V0H24" id="aB"/><g id="F"><use transform="matrix(0.07407407407407407,0,0,0.07407407407407407,0,0)" xlink:href="#aB"/><use transform="matrix(0.07407407407407407,0,0,0.07407407407407407,16.22222222222222,0)" xlink:href="#P"/><use transform="matrix(0.07407407407407407,0,0,0.07407407407407407,32.44444444444444,0)" xlink:href="#W"/><use transform="matrix(0.07407407407407407,0,0,0.07407407407407407,47.259259259259245,0)" xlink:href="#R"/></g><g id="G"><use transform="matrix(0.07407407407407407,0,0,0.07407407407407407,0,0)" xlink:href="#ao"/><use transform="matrix(0.07407407407407407,0,0,0.07407407407407407,19.185185185185183,0)" xlink:href="#W"/><use transform="matrix(0.07407407407407407,0,0,0.07407407407407407,34,0)" xlink:href="#O"/><use transform="matrix(0.07407407407407407,0,0,0.07407407407407407,41.407407407407405,0)" xlink:href="#W"/><use transform="matrix(0.07407407407407407,0,0,0.07407407407407407,56.22222222222221,0)" xlink:href="#al"/><use transform="matrix(0.07407407407407407,0,0,0.07407407407407407,72.44444444444443,0)" xlink:href="#am"/><use transform="matrix(0.07407407407407407,0,0,0.07407407407407407,87.25925925925924,0)" xlink:href="#T"/><use transform="matrix(0.07407407407407407,0,0,0.07407407407407407,94.66666666666664,0)" xlink:href="#al"/><use transform="matrix(0.07407407407407407,0,0,0.07407407407407407,110.88888888888884,0)" xlink:href="#av"/></g><g id="H"><use transform="matrix(0.07407407407407408,0,0,0.07407407407407408,0,0)" xlink:href="#X"/><use transform="matrix(0.07407407407407408,0,0,0.07407407407407408,17.77777777777778,0)" xlink:href="#P"/><use transform="matrix(0.07407407407407408,0,0,0.07407407407407408,34,0)" xlink:href="#R"/></g><path fill="#fc9432" d="M199 0l-22-63H83L61 0H9l90-248h61L250 0h-51zm-33-102l-36-108c-10 38-24 72-36 108h72" id="aC"/><path fill="#fc9432" d="M85 4C-2 5 27-109 22-190h50c7 57-23 150 33 157 60-5 35-97 40-157h50l1 190h-47c-2-12 1-28-3-38-12 25-28 42-61 42" id="aD"/><path fill="#fc9432" d="M115-3C79 11 28 4 28-45v-112H4v-33h27l15-45h31v45h36v33H77v99c-1 23 16 31 38 25v30" id="aE"/><path fill="#fc9432" d="M110-194c64 0 96 36 96 99 0 64-35 99-97 99-61 0-95-36-95-99 0-62 34-99 96-99zm-1 164c35 0 45-28 45-65 0-40-10-65-43-65-34 0-45 26-45 65 0 36 10 65 43 65" id="aF"/><g id="I"><use transform="matrix(0.07407407407407407,0,0,0.07407407407407407,0,0)" xlink:href="#aC"/><use transform="matrix(0.07407407407407407,0,0,0.07407407407407407,19.185185185185183,0)" xlink:href="#aD"/><use transform="matrix(0.07407407407407407,0,0,0.07407407407407407,35.407407407407405,0)" xlink:href="#aE"/><use transform="matrix(0.07407407407407407,0,0,0.07407407407407407,44.22222222222222,0)" xlink:href="#aF"/></g><path fill="#fc9432" d="M169-182c-1-43-94-46-97-3 18 66 151 10 154 114 3 95-165 93-204 36-6-8-10-19-12-30l50-8c3 46 112 56 116 5-17-69-150-10-154-114-4-87 153-88 188-35 5 8 8 18 10 28" id="aG"/><path fill="#fc9432" d="M190-63c-7 42-38 67-86 67-59 0-84-38-90-98-12-110 154-137 174-36l-49 2c-2-19-15-32-35-32-30 0-35 28-38 64-6 74 65 87 74 30" id="aH"/><path fill="#fc9432" d="M133-34C117-15 103 5 69 4 32 3 11-16 11-54c-1-60 55-63 116-61 1-26-3-47-28-47-18 1-26 9-28 27l-52-2c7-38 36-58 82-57s74 22 75 68l1 82c-1 14 12 18 25 15v27c-30 8-71 5-69-32zm-48 3c29 0 43-24 42-57-32 0-66-3-65 30 0 17 8 27 23 27" id="aI"/><path fill="#fc9432" d="M25 0v-261h50V0H25" id="aJ"/><path fill="#fc9432" d="M25-224v-37h50v37H25zM25 0v-190h50V0H25" id="aK"/><path fill="#fc9432" d="M135-194c87-1 58 113 63 194h-50c-7-57 23-157-34-157-59 0-34 97-39 157H25l-1-190h47c2 12-1 28 3 38 12-26 28-41 61-42" id="aL"/><path fill="#fc9432" d="M195-6C206 82 75 100 31 46c-4-6-6-13-8-21l49-6c3 16 16 24 34 25 40 0 42-37 40-79-11 22-30 35-61 35-53 0-70-43-70-97 0-56 18-96 73-97 30 0 46 14 59 34l2-30h47zm-90-29c32 0 41-27 41-63 0-35-9-62-40-62-32 0-39 29-40 63 0 36 9 62 39 62" id="aM"/><g id="J"><use transform="matrix(0.07407407407407407,0,0,0.07407407407407407,0,0)" xlink:href="#aG"/><use transform="matrix(0.07407407407407407,0,0,0.07407407407407407,17.77777777777778,0)" xlink:href="#aH"/><use transform="matrix(0.07407407407407407,0,0,0.07407407407407407,32.592592592592595,0)" xlink:href="#aI"/><use transform="matrix(0.07407407407407407,0,0,0.07407407407407407,47.407407407407405,0)" xlink:href="#aJ"/><use transform="matrix(0.07407407407407407,0,0,0.07407407407407407,54.81481481481481,0)" xlink:href="#aK"/><use transform="matrix(0.07407407407407407,0,0,0.07407407407407407,62.22222222222221,0)" xlink:href="#aL"/><use transform="matrix(0.07407407407407407,0,0,0.07407407407407407,78.44444444444443,0)" xlink:href="#aM"/></g></defs></g></svg>